<?xml version="1.0" encoding="utf-8"?>
<!-- Generator: Adobe Illustrator 27.5.0, SVG Export Plug-In . SVG Version: 6.00 Build 0)  -->
<svg version="1.1" xmlns="http://www.w3.org/2000/svg" xmlns:xlink="http://www.w3.org/1999/xlink" x="0px" y="0px"
	 viewBox="0 0 500 500" style="enable-background:new 0 0 500 500;" xml:space="preserve">
<g id="Floor">
	<ellipse id="Floor_2_" style="fill:#F5F5F5;" cx="250" cy="367.693" rx="244.938" ry="123.89"/>
</g>
<g id="Shadows">
	<ellipse id="Shadow_44_" style="fill:#E0E0E0;" cx="110.483" cy="400.094" rx="71.751" ry="41.426"/>
	<path id="Shadow_33_" style="fill:#E0E0E0;" d="M465.434,354.995l-117.83-67.824c-1.989-1.148-5.214-1.148-7.203,0L165.96,387.885
		c-1.989,1.148-1.989,3.01,0,4.158l117.828,67.825c1.989,1.148,5.214,1.148,7.203,0l174.444-100.715
		C467.423,358.005,467.423,356.143,465.434,354.995z"/>
</g>
<g id="Cargo_Car_1_">
	<g id="Cargo_Car">
		<path style="fill:#E0E0E0;" d="M357.142,114.068l70.02,40.445c4.969,2.869,9.035,9.911,9.035,15.65v138.202l5.945,3.432V169.623
			c0-8.101-5.74-18.043-12.756-22.094l-72.514-41.886c-7.016-4.051-12.756-0.737-12.756,7.365v142.173l5.982,3.455l0-140.502
			C350.1,113.661,353.269,111.832,357.142,114.068z"/>
		<g>
			<path id="XMLID_670_" style="fill:#455A64;" d="M303.134,422.904c0-7.286,5.116-16.146,11.426-19.788
				c3.312-1.912,6.281-1.988,8.367-0.592l0,0l7.705,4.399l-16.387,27.843l-7.637-4.394l0.011-0.019
				C304.477,429.192,303.134,426.622,303.134,422.904z"/>
			<path id="XMLID_657_" style="fill:#37474F;" d="M322.558,407.725c-6.31,3.643-11.425,12.503-11.425,19.789
				c-0.001,7.286,5.114,10.239,11.425,6.596c6.31-3.643,11.425-12.503,11.425-19.789
				C333.983,407.035,328.868,404.082,322.558,407.725z"/>
			<path id="XMLID_655_" style="fill:#263238;" d="M326.425,418.685c0-2.848-1.731-4.157-3.868-2.924
				c-2.136,1.233-3.867,4.542-3.867,7.39c0,2.848,1.731,4.157,3.867,2.924C324.694,424.841,326.425,421.533,326.425,418.685z"/>
			<path id="XMLID_652_" style="fill:#F0F0F0;" d="M309.167,395.567c0,0,0.005,13.037,6.219,17.65
				c1.171,0.869,2.415,1.471,3.148,2.081c1.585,1.32,0.535,3.746-1.391,4.778c-2.801,1.501-18.054-2.56-24.517-14.959
				L309.167,395.567z"/>
			<path id="XMLID_651_" style="fill:#FAFAFA;" d="M315.088,398.968c0,0,0.005,13.037,6.219,17.65
				c1.171,0.869,2.415,1.471,3.148,2.081c1.585,1.32,0.535,3.746-1.391,4.778c-2.801,1.501-18.055-2.56-24.517-14.959
				L315.088,398.968z"/>
			<path id="XMLID_650_" style="fill:#263238;" d="M322.558,419.652c-0.605,0.35-1.096,1.2-1.096,1.899
				c0,0.699,0.491,0.983,1.096,0.633c0.605-0.35,1.096-1.2,1.096-1.899C323.654,419.586,323.163,419.302,322.558,419.652z"/>
		</g>
		<g>
			<path id="XMLID_635_" style="fill:#455A64;" d="M427.174,351.29c0-7.286,5.116-16.146,11.426-19.788
				c3.312-1.912,6.281-1.988,8.368-0.592l0,0l7.705,4.399l-16.387,27.844l-7.637-4.394l0.011-0.019
				C428.517,357.578,427.174,355.008,427.174,351.29z"/>
			<path id="XMLID_630_" style="fill:#37474F;" d="M446.598,336.11c-6.31,3.643-11.425,12.503-11.425,19.789
				c-0.001,7.286,5.115,10.239,11.425,6.596c6.31-3.643,11.425-12.503,11.425-19.789
				C458.023,335.421,452.908,332.468,446.598,336.11z"/>
			<path id="XMLID_574_" style="fill:#263238;" d="M450.465,347.07c0-2.848-1.731-4.157-3.868-2.924
				c-2.136,1.233-3.867,4.542-3.867,7.39c0,2.848,1.731,4.157,3.867,2.924C448.734,353.227,450.465,349.918,450.465,347.07z"/>
			<path id="XMLID_543_" style="fill:#F0F0F0;" d="M433.207,323.953c0,0,0.005,13.037,6.219,17.65
				c1.171,0.869,2.415,1.471,3.148,2.081c1.585,1.32,0.535,3.746-1.391,4.778c-2.801,1.501-18.054-2.56-24.517-14.959
				L433.207,323.953z"/>
			<path id="XMLID_541_" style="fill:#FAFAFA;" d="M439.128,327.354c0,0,0.005,13.037,6.219,17.65
				c1.171,0.869,2.415,1.471,3.148,2.081c1.585,1.32,0.535,3.746-1.391,4.778c-2.801,1.501-18.055-2.56-24.517-14.959
				L439.128,327.354z"/>
			<path id="XMLID_540_" style="fill:#263238;" d="M446.598,348.037c-0.605,0.35-1.096,1.2-1.096,1.899
				c0,0.699,0.491,0.982,1.096,0.633c0.605-0.35,1.096-1.2,1.096-1.899C447.694,347.971,447.203,347.688,446.598,348.037z"/>
		</g>
		<g>
			<polygon style="fill:#455A64;" points="448.126,315.25 338.133,251.727 158.421,355.484 268.412,419.008 			"/>
			<polygon style="fill:#37474F;" points="448.126,315.25 448.125,322.159 268.412,425.917 268.412,419.008 			"/>
			<polygon style="fill:#263238;" points="158.421,355.484 158.42,362.394 268.412,425.917 268.412,419.008 			"/>
		</g>
	</g>
</g>
<g id="Boxes">
	<g id="Box_11_">
		<polygon id="Shadow_32_" style="opacity:0.1;" points="432.14,315.548 337.796,370.039 241.582,314.563 336.18,260.214 		"/>
		<g id="Box_3_">
			<g id="XMLID_28343_">
				<polygon id="XMLID_28977_" style="fill:#27DEBF;" points="428.93,250.759 342.53,200.789 251.219,253.638 337.619,303.607 				
					"/>
				<polygon id="XMLID_4471_" style="opacity:0.7;fill:#FFFFFF;" points="428.93,250.759 342.53,200.789 251.219,253.638 
					337.619,303.607 				"/>
			</g>
			<g id="XMLID_28342_">
				<polygon id="XMLID_28975_" style="fill:#27DEBF;" points="337.62,364.005 428.93,311.156 428.93,250.758 337.619,303.607 				
					"/>
				<polygon id="XMLID_539_" style="opacity:0.6;fill:#FFFFFF;" points="337.62,364.005 428.93,311.156 428.93,250.758 
					337.619,303.607 				"/>
			</g>
			<g>
				<g id="XMLID_28327_">
					<g id="XMLID_28326_">
						<path id="XMLID_28569_" style="fill:#455A64;" d="M347.697,343.971c-0.281,0-0.545-0.069-0.786-0.208
							c-0.623-0.361-0.981-1.153-0.981-2.171v-6.399c0-0.004,0-0.008,0-0.013v-0.474l0.327,0.059l5.018-2.947v7.151
							c0,1.819-1.086,3.871-2.471,4.672C348.427,343.859,348.049,343.971,347.697,343.971z M346.735,335.667v5.925
							c0,0.723,0.212,1.262,0.579,1.473c0.365,0.209,0.792,0.048,1.088-0.12c1.121-0.65,2.069-2.469,2.069-3.976v-0.524h-1.857
							l-0.367-2.509L346.735,335.667z M349.309,337.641h1.161v-4.418l-2.993,1.758l1.482,0.264L349.309,337.641z"/>
					</g>
					<g id="XMLID_28329_">
						<path id="XMLID_28568_" style="fill:#455A64;" d="M348.603,349.072c-0.222,0-0.402-0.18-0.402-0.402v-5.376
							c0-0.222,0.18-0.402,0.402-0.402c0.222,0,0.402,0.18,0.402,0.402v5.376C349.005,348.892,348.825,349.072,348.603,349.072z"/>
					</g>
					<g id="XMLID_28357_">
						<path id="XMLID_28567_" style="fill:#455A64;" d="M346.266,350.42c-0.138,0-0.275-0.071-0.348-0.201
							c-0.111-0.193-0.046-0.438,0.147-0.549l4.674-2.697c0.189-0.115,0.438-0.05,0.549,0.147c0.111,0.193,0.046,0.438-0.147,0.549
							l-4.674,2.698C346.404,350.403,346.335,350.42,346.266,350.42z"/>
					</g>
				</g>
				<g id="XMLID_28339_">
					<g id="XMLID_28341_">
						<path id="XMLID_28566_" style="fill:#455A64;" d="M362.915,341.162c-0.157,0-0.306-0.038-0.44-0.113
							c-0.306-0.176-0.482-0.528-0.482-0.968v-1.103c0-0.222,0.18-0.402,0.402-0.402c0.222,0,0.402,0.18,0.402,0.402v1.103
							c0,0.165,0.046,0.251,0.077,0.27c0.032,0.017,0.126,0.011,0.262-0.069c0.354-0.21,0.748-1.008,0.748-1.819v-7.149
							c0-0.222,0.18-0.402,0.402-0.402s0.402,0.18,0.402,0.402v7.149c0,1.048-0.49,2.127-1.142,2.511
							C363.334,341.099,363.118,341.162,362.915,341.162z"/>
					</g>
					<g id="XMLID_28340_">
						<path id="XMLID_28563_" style="fill:#455A64;" d="M358.677,334.913v-0.698c0-3.278,2.307-7.278,5.145-8.916
							c1.452-0.836,2.84-0.96,3.9-0.346c1.065,0.614,1.65,1.875,1.65,3.549v0.233L358.677,334.913z M366.233,325.373
							c-0.608,0-1.291,0.21-2.008,0.624c-2.41,1.391-4.408,4.632-4.705,7.499l9.043-5.223c-0.046-1.259-0.484-2.185-1.243-2.623
							C367,325.464,366.633,325.373,366.233,325.373z"/>
					</g>
				</g>
				<g id="XMLID_28332_">
					<g id="XMLID_28336_">
						<g id="XMLID_28338_">
							<path id="XMLID_28562_" style="fill:#455A64;" d="M377.364,332.923c-0.222,0-0.402-0.18-0.402-0.402v-13.692
								c0-0.222,0.18-0.402,0.402-0.402c0.222,0,0.402,0.18,0.402,0.402v13.692C377.766,332.743,377.586,332.923,377.364,332.923z"
								/>
						</g>
						<g id="XMLID_28337_">
							<path id="XMLID_28561_" style="fill:#455A64;" d="M376.188,321.952c-0.054,0-0.107-0.011-0.159-0.034
								c-0.205-0.088-0.297-0.325-0.209-0.529l1.432-3.307l1.597,1.844c0.147,0.168,0.128,0.421-0.04,0.567
								c-0.172,0.145-0.423,0.127-0.568-0.041l-0.759-0.876l-0.924,2.133C376.492,321.861,376.343,321.952,376.188,321.952z"/>
						</g>
					</g>
					<g id="XMLID_28333_">
						<g id="XMLID_28335_">
							<path id="XMLID_28560_" style="fill:#455A64;" d="M381.086,330.802c-0.222,0-0.402-0.18-0.402-0.402v-13.693
								c0-0.222,0.18-0.402,0.402-0.402c0.222,0,0.402,0.18,0.402,0.402V330.4C381.488,330.622,381.308,330.802,381.086,330.802z"/>
						</g>
						<g id="XMLID_28334_">
							<path id="XMLID_28559_" style="fill:#455A64;" d="M379.908,319.83c-0.055,0-0.107-0.01-0.159-0.033
								c-0.205-0.088-0.298-0.325-0.209-0.529l1.431-3.307l1.597,1.844c0.147,0.168,0.128,0.421-0.04,0.567
								c-0.172,0.144-0.423,0.128-0.568-0.041l-0.759-0.876l-0.924,2.134C380.212,319.739,380.063,319.83,379.908,319.83z"/>
						</g>
					</g>
				</g>
			</g>
			<g id="XMLID_28331_">
				<polygon id="XMLID_529_" style="fill:#27DEBF;" points="337.619,364.005 251.219,314.036 251.219,253.638 337.619,303.607 				
					"/>
				<polygon id="XMLID_526_" style="opacity:0.5;fill:#FFFFFF;" points="337.619,364.005 251.219,314.036 251.219,253.638 
					337.619,303.607 				"/>
			</g>
			<g id="XMLID_28328_">
				<polygon id="XMLID_523_" style="fill:#37474F;" points="287.492,283.757 293.406,287.171 293.406,277.994 287.492,274.58 				
					"/>
				<polygon id="XMLID_28272_" style="fill:#455A64;" points="293.406,277.995 384.717,225.146 378.803,221.731 287.492,274.58 				
					"/>
				<polygon style="fill:#37474F;" points="290.174,273.02 296.083,276.438 299.382,274.537 293.466,271.115 				"/>
			</g>
			<g>
				<g id="XMLID_1348_">
					<path id="XMLID_1349_" style="fill:#FAFAFA;" d="M384.948,232.848l-24.189,13.935c-0.438,0.253-0.319,0.73,0.264,1.067
						l27.308,15.767c0.584,0.337,1.411,0.405,1.849,0.152l24.195-13.941c0.438-0.253,0.319-0.73-0.264-1.067L386.797,233
						C386.214,232.663,385.386,232.595,384.948,232.848z"/>
				</g>
				<g>
					<g>
						<path style="fill:#E0E0E0;" d="M397.165,256.56c0.172,0,0.341-0.09,0.433-0.25c0.139-0.239,0.057-0.545-0.183-0.683
							l-22.671-13.089c-0.238-0.14-0.545-0.057-0.683,0.183c-0.139,0.239-0.057,0.545,0.183,0.683l22.671,13.089
							C396.995,256.539,397.081,256.56,397.165,256.56z"/>
					</g>
					<g>
						<path style="fill:#E0E0E0;" d="M394.648,258.002c0.172,0,0.341-0.09,0.433-0.25c0.139-0.239,0.057-0.545-0.183-0.683
							l-22.671-13.089c-0.237-0.139-0.545-0.058-0.683,0.183c-0.139,0.239-0.057,0.545,0.183,0.683l22.671,13.089
							C394.477,257.98,394.563,258.002,394.648,258.002z"/>
					</g>
					<g>
						<path style="fill:#E0E0E0;" d="M392.131,259.444c0.172,0,0.341-0.09,0.433-0.25c0.139-0.239,0.057-0.545-0.183-0.683
							l-22.671-13.089c-0.237-0.139-0.545-0.057-0.683,0.183c-0.139,0.239-0.057,0.545,0.183,0.683l22.671,13.089
							C391.96,259.423,392.046,259.444,392.131,259.444z"/>
					</g>
					<g>
						<path style="fill:#E0E0E0;" d="M389.614,260.887c0.172,0,0.341-0.09,0.433-0.25c0.139-0.239,0.057-0.545-0.183-0.683
							l-22.671-13.089c-0.238-0.14-0.545-0.057-0.683,0.183c-0.139,0.239-0.057,0.545,0.183,0.683l22.671,13.089
							C389.443,260.865,389.529,260.887,389.614,260.887z"/>
					</g>
				</g>
				<g id="XMLID_1296_">
					<g id="XMLID_1346_">
						<polygon id="XMLID_1347_" style="fill:#455A64;" points="412.086,249.197 411.205,248.688 400.877,254.651 401.759,255.16 
													"/>
					</g>
					<g id="XMLID_1344_">
						<polygon id="XMLID_1345_" style="fill:#455A64;" points="408.498,247.125 406.967,246.253 396.64,252.216 398.17,253.087 
													"/>
					</g>
					<g id="XMLID_1340_">
						<polygon id="XMLID_1342_" style="fill:#455A64;" points="404.909,245.052 404.027,244.543 393.7,250.506 394.582,251.015 
													"/>
					</g>
					<g id="XMLID_1337_">
						<polygon id="XMLID_1338_" style="fill:#455A64;" points="402.221,243.479 400.439,242.47 390.111,248.433 391.894,249.442 
													"/>
					</g>
					<g id="XMLID_1335_">
						<polygon id="XMLID_1336_" style="fill:#455A64;" points="397.732,240.907 396.85,240.397 386.523,246.361 387.404,246.87 
													"/>
					</g>
					<g id="XMLID_1333_">
						<polygon id="XMLID_1334_" style="fill:#455A64;" points="395.169,239.402 393.261,238.325 382.934,244.288 384.841,245.365 
													"/>
					</g>
					<g id="XMLID_1330_">
						<polygon id="XMLID_1332_" style="fill:#455A64;" points="390.555,236.761 389.673,236.252 379.345,242.215 380.227,242.724 
													"/>
					</g>
					<g id="XMLID_1317_">
						<polygon id="XMLID_1324_" style="fill:#455A64;" points="388.518,235.573 388.077,235.318 377.75,241.281 378.191,241.536 
													"/>
					</g>
					<g id="XMLID_1315_">
						<polygon id="XMLID_1316_" style="fill:#455A64;" points="392.14,237.736 391.699,237.481 381.372,243.444 381.812,243.698 
													"/>
					</g>
					<g id="XMLID_1308_">
						<polygon id="XMLID_1309_" style="fill:#455A64;" points="399.409,241.887 398.968,241.633 388.641,247.596 389.082,247.85 
													"/>
					</g>
					<g id="XMLID_1306_">
						<polygon id="XMLID_1307_" style="fill:#455A64;" points="403.36,244.178 402.919,243.924 392.592,249.887 393.032,250.141 
													"/>
					</g>
					<g id="XMLID_1304_">
						<polygon id="XMLID_1305_" style="fill:#455A64;" points="406.158,245.847 405.716,245.593 395.389,251.556 395.83,251.81 
													"/>
					</g>
					<g id="XMLID_1302_">
						<polygon id="XMLID_1303_" style="fill:#455A64;" points="410.088,248.031 409.647,247.776 399.32,253.739 399.761,253.993 
													"/>
					</g>
					<g id="XMLID_1299_">
						<polygon id="XMLID_1301_" style="fill:#455A64;" points="386.966,234.689 386.084,234.18 375.757,240.143 376.638,240.652 
													"/>
					</g>
				</g>
			</g>
			<g>
				<g id="XMLID_1428_">
					<path id="XMLID_1429_" style="fill:#FAFAFA;" d="M400.875,305.15l-0.001,15.148c0,0.583,0.41,0.82,0.915,0.528l23.649-13.653
						c0.505-0.292,0.915-1.001,0.915-1.585l-0.001-15.157c0-0.583-0.41-0.82-0.915-0.528l-23.648,13.662
						C401.285,303.857,400.875,304.566,400.875,305.15z"/>
				</g>
				<g id="XMLID_1393_">
					<g id="XMLID_1426_">
						<polygon id="XMLID_1427_" style="fill:#455A64;" points="424.889,292.073 424.125,292.514 424.125,306.284 424.889,305.843 
													"/>
					</g>
					<g id="XMLID_1424_">
						<polygon id="XMLID_1425_" style="fill:#455A64;" points="421.78,293.866 420.464,294.64 420.465,308.411 421.78,307.637 
													"/>
					</g>
					<g id="XMLID_1422_">
						<polygon id="XMLID_1423_" style="fill:#455A64;" points="418.672,295.66 417.908,296.101 417.909,309.871 418.672,309.431 
													"/>
					</g>
					<g id="XMLID_1420_">
						<polygon id="XMLID_1421_" style="fill:#455A64;" points="416.328,296.989 414.8,297.895 414.8,311.665 416.328,310.759 						
							"/>
					</g>
					<g id="XMLID_1418_">
						<polygon id="XMLID_1419_" style="fill:#455A64;" points="412.455,299.248 411.691,299.689 411.692,313.459 412.455,313.018 
													"/>
					</g>
					<g id="XMLID_1416_">
						<polygon id="XMLID_1417_" style="fill:#455A64;" points="410.217,300.511 408.583,301.483 408.583,315.253 410.217,314.281 
													"/>
					</g>
					<g id="XMLID_1413_">
						<polygon id="XMLID_1414_" style="fill:#455A64;" points="406.238,302.835 405.475,303.276 405.475,317.047 406.239,316.605 
													"/>
					</g>
					<g id="XMLID_1411_">
						<polygon id="XMLID_1412_" style="fill:#455A64;" points="404.465,303.844 404.083,304.065 404.084,317.835 404.465,317.615 
													"/>
					</g>
					<g id="XMLID_1409_">
						<polygon id="XMLID_1410_" style="fill:#455A64;" points="407.655,302.085 407.274,302.306 407.274,316.076 407.655,315.855 
													"/>
					</g>
					<g id="XMLID_1407_">
						<polygon id="XMLID_1408_" style="fill:#455A64;" points="413.917,298.418 413.535,298.638 413.535,312.408 413.917,312.188 
													"/>
					</g>
					<g id="XMLID_1404_">
						<polygon id="XMLID_1406_" style="fill:#455A64;" points="417.346,296.45 416.964,296.671 416.964,310.44 417.346,310.22 
													"/>
					</g>
					<g id="XMLID_1398_">
						<polygon id="XMLID_1401_" style="fill:#455A64;" points="419.809,295.09 419.427,295.311 419.428,309.081 419.809,308.86 
													"/>
					</g>
					<g id="XMLID_1396_">
						<polygon id="XMLID_1397_" style="fill:#455A64;" points="423.149,293.062 422.767,293.283 422.767,307.053 423.149,306.832 
													"/>
					</g>
					<g id="XMLID_1394_">
						<polygon id="XMLID_1395_" style="fill:#455A64;" points="403.13,304.629 402.366,305.07 402.367,318.84 403.13,318.4 						
							"/>
					</g>
				</g>
			</g>
		</g>
	</g>
	<g id="Box_10_">
		<polygon id="Shadow_15_" style="opacity:0.1;" points="423.055,249.483 339.232,297.93 250.56,246.626 334.384,198.179 		"/>
		<g id="Box_2_">
			<g id="XMLID_4745_">
				<polygon id="XMLID_4746_" style="fill:#27DEBF;" points="248.249,181.023 328.665,134.508 419.663,187.159 339.247,233.674 				
					"/>
				<polygon id="XMLID_4743_" style="opacity:0.3;fill:#FFFFFF;" points="248.249,181.023 328.665,134.508 419.663,187.159 
					339.247,233.674 				"/>
			</g>
			<g>
				<g id="XMLID_1391_">
					<path id="XMLID_1392_" style="fill:#FAFAFA;" d="M286.794,164.546l24.189,13.935c0.438,0.253,0.319,0.73-0.264,1.067
						l-27.308,15.767c-0.583,0.337-1.411,0.405-1.849,0.153l-24.195-13.941c-0.438-0.253-0.319-0.73,0.264-1.067l27.313-15.761
						C285.529,164.361,286.357,164.293,286.794,164.546z"/>
				</g>
				<g>
					<g>
						<path style="fill:#E0E0E0;" d="M274.577,188.259c-0.172,0-0.341-0.09-0.433-0.25c-0.139-0.239-0.057-0.545,0.183-0.683
							l22.671-13.089c0.238-0.14,0.545-0.057,0.683,0.183c0.139,0.239,0.057,0.545-0.183,0.683l-22.671,13.089
							C274.748,188.237,274.662,188.259,274.577,188.259z"/>
					</g>
					<g>
						<path style="fill:#E0E0E0;" d="M277.095,189.7c-0.172,0-0.341-0.09-0.433-0.25c-0.139-0.239-0.057-0.545,0.183-0.683
							l22.671-13.089c0.237-0.139,0.545-0.058,0.683,0.183c0.139,0.239,0.057,0.545-0.183,0.683l-22.671,13.089
							C277.266,189.679,277.18,189.7,277.095,189.7z"/>
					</g>
					<g>
						<path style="fill:#E0E0E0;" d="M279.611,191.143c-0.172,0-0.341-0.09-0.433-0.25c-0.139-0.239-0.057-0.545,0.183-0.683
							l22.671-13.089c0.237-0.139,0.545-0.057,0.683,0.183c0.139,0.239,0.057,0.545-0.183,0.683l-22.671,13.089
							C279.782,191.121,279.696,191.143,279.611,191.143z"/>
					</g>
					<g>
						<path style="fill:#E0E0E0;" d="M282.129,192.585c-0.172,0-0.341-0.09-0.433-0.25c-0.139-0.239-0.057-0.545,0.183-0.683
							l22.671-13.089c0.238-0.14,0.545-0.057,0.683,0.183c0.139,0.239,0.057,0.545-0.183,0.683l-22.671,13.089
							C282.3,192.563,282.214,192.585,282.129,192.585z"/>
					</g>
				</g>
				<g id="XMLID_1351_">
					<g id="XMLID_1388_">
						<polygon id="XMLID_1390_" style="fill:#455A64;" points="259.656,180.895 260.538,180.387 270.865,186.349 269.984,186.858 
													"/>
					</g>
					<g id="XMLID_1383_">
						<polygon id="XMLID_1384_" style="fill:#455A64;" points="263.245,178.823 264.775,177.951 275.103,183.915 273.572,184.786 
													"/>
					</g>
					<g id="XMLID_1380_">
						<polygon id="XMLID_1382_" style="fill:#455A64;" points="266.834,176.75 267.716,176.241 278.043,182.204 277.161,182.713 
													"/>
					</g>
					<g id="XMLID_1378_">
						<polygon id="XMLID_1379_" style="fill:#455A64;" points="269.522,175.177 271.304,174.168 281.631,180.132 279.849,181.14 
													"/>
					</g>
					<g id="XMLID_1376_">
						<polygon id="XMLID_1377_" style="fill:#455A64;" points="274.011,172.605 274.893,172.096 285.22,178.059 284.338,178.568 
													"/>
					</g>
					<g id="XMLID_1373_">
						<polygon id="XMLID_1375_" style="fill:#455A64;" points="276.574,171.1 278.481,170.023 288.809,175.986 286.901,177.063 
													"/>
					</g>
					<g id="XMLID_1370_">
						<polygon id="XMLID_1371_" style="fill:#455A64;" points="281.188,168.46 282.07,167.951 292.397,173.914 291.516,174.422 
													"/>
					</g>
					<g id="XMLID_1368_">
						<polygon id="XMLID_1369_" style="fill:#455A64;" points="283.225,167.271 283.666,167.016 293.993,172.98 293.552,173.234 
													"/>
					</g>
					<g id="XMLID_1366_">
						<polygon id="XMLID_1367_" style="fill:#455A64;" points="279.603,169.434 280.044,169.179 290.371,175.142 289.93,175.397 
													"/>
					</g>
					<g id="XMLID_1364_">
						<polygon id="XMLID_1365_" style="fill:#455A64;" points="272.334,173.585 272.774,173.331 283.102,179.294 282.661,179.548 
													"/>
					</g>
					<g id="XMLID_1362_">
						<polygon id="XMLID_1363_" style="fill:#455A64;" points="268.383,175.877 268.824,175.622 279.151,181.585 278.71,181.839 
													"/>
					</g>
					<g id="XMLID_1360_">
						<polygon id="XMLID_1361_" style="fill:#455A64;" points="265.585,177.546 266.026,177.291 276.353,183.254 275.913,183.508 
													"/>
					</g>
					<g id="XMLID_1357_">
						<polygon id="XMLID_1359_" style="fill:#455A64;" points="261.654,179.729 262.095,179.474 272.423,185.437 271.982,185.691 
													"/>
					</g>
					<g id="XMLID_1353_">
						<polygon id="XMLID_1355_" style="fill:#455A64;" points="284.777,166.387 285.659,165.878 295.986,171.841 295.104,172.35 
													"/>
					</g>
				</g>
			</g>
			<g id="XMLID_4740_">
				<polygon id="XMLID_4741_" style="fill:#27DEBF;" points="339.246,294.072 248.248,241.421 248.248,181.023 339.246,233.674 				
					"/>
			</g>
			<g id="XMLID_4558_">
				<polygon id="XMLID_4564_" style="fill:#27DEBF;" points="339.246,294.072 419.663,247.557 419.663,187.159 339.247,233.674 				
					"/>
				<polygon id="XMLID_4557_" style="opacity:0.1;" points="339.246,294.072 419.663,247.557 419.663,187.159 339.247,233.674 				
					"/>
			</g>
			<g>
				<g id="XMLID_4554_">
					<polygon id="XMLID_4555_" style="fill:#37474F;" points="383.39,217.278 377.476,220.693 377.476,211.515 383.39,208.101 					
						"/>
				</g>
				<g id="XMLID_4547_">
					<polygon id="XMLID_276_" style="fill:#455A64;" points="377.476,211.516 286.478,158.866 292.392,155.451 383.39,208.101 					
						"/>
				</g>
			</g>
			<g>
				<g id="XMLID_1264_">
					<g id="XMLID_1290_">
						<path id="XMLID_1291_" style="fill:#455A64;" d="M305.895,265.178c-1.184-0.684-2.112-2.438-2.112-3.992v-6.111l4.288,2.518
							l0.279-0.05v0.405c0,0.003,0,0.007,0,0.011v5.469c0,0.87-0.306,1.548-0.838,1.855c-0.206,0.118-0.432,0.177-0.672,0.177
							C306.54,265.46,306.217,265.365,305.895,265.178z M306.371,258.594l-0.313,2.144h-1.587v0.448c0,1.288,0.81,2.843,1.768,3.398
							c0.253,0.143,0.618,0.281,0.93,0.102c0.314-0.181,0.495-0.641,0.495-1.259v-5.064L306.371,258.594z M305.762,258.003
							l1.266-0.226l-2.558-1.503v3.776h0.992L305.762,258.003z"/>
					</g>
					<g id="XMLID_1288_">
						<path id="XMLID_1289_" style="fill:#455A64;" d="M306.067,269.82c0.19,0,0.344-0.154,0.344-0.344v-4.594
							c0-0.19-0.154-0.344-0.344-0.344c-0.19,0-0.344,0.154-0.344,0.344v4.594C305.723,269.666,305.877,269.82,306.067,269.82z"/>
					</g>
					<g id="XMLID_1265_">
						<path id="XMLID_1285_" style="fill:#455A64;" d="M308.064,270.971c0.118,0,0.235-0.061,0.297-0.172
							c0.095-0.165,0.039-0.374-0.125-0.469l-3.994-2.305c-0.161-0.098-0.375-0.043-0.469,0.126
							c-0.095,0.165-0.039,0.374,0.125,0.469l3.994,2.305C307.946,270.957,308.005,270.971,308.064,270.971z"/>
					</g>
				</g>
				<g id="XMLID_948_">
					<g id="XMLID_1262_">
						<path id="XMLID_1263_" style="fill:#455A64;" d="M320.032,278.072c0.134,0,0.262-0.032,0.376-0.097
							c0.262-0.15,0.412-0.451,0.412-0.827v-0.942c0-0.19-0.154-0.344-0.344-0.344c-0.19,0-0.344,0.154-0.344,0.344v0.942
							c0,0.141-0.039,0.215-0.066,0.231c-0.027,0.014-0.108,0.009-0.224-0.059c-0.303-0.179-0.639-0.861-0.639-1.555v-6.11
							c0-0.19-0.154-0.344-0.344-0.344c-0.19,0-0.344,0.154-0.344,0.344v6.11c0,0.895,0.419,1.818,0.976,2.146
							C319.674,278.018,319.858,278.072,320.032,278.072z"/>
					</g>
					<g id="XMLID_1236_">
						<path id="XMLID_1238_" style="fill:#455A64;" d="M314.513,267.451v-0.199c0-1.431,0.5-2.508,1.41-3.033
							c0.906-0.525,2.092-0.419,3.333,0.296c2.425,1.4,4.397,4.818,4.397,7.62v0.596L314.513,267.451z M316.267,264.815
							c-0.648,0.374-1.023,1.166-1.062,2.242l7.729,4.464c-0.254-2.45-1.961-5.221-4.021-6.409
							c-0.612-0.354-1.197-0.533-1.716-0.533C316.854,264.578,316.541,264.656,316.267,264.815z"/>
					</g>
				</g>
				<g id="XMLID_801_">
					<g id="XMLID_816_">
						<g id="XMLID_819_">
							<path id="XMLID_820_" style="fill:#455A64;" d="M333.856,285.785c0.19,0,0.344-0.154,0.344-0.344v-11.702
								c0-0.19-0.154-0.344-0.344-0.344c-0.19,0-0.344,0.154-0.344,0.344v11.702C333.512,285.631,333.666,285.785,333.856,285.785z"
								/>
						</g>
						<g id="XMLID_817_">
							<path id="XMLID_818_" style="fill:#455A64;" d="M334.861,276.408c0.047,0,0.091-0.009,0.136-0.029
								c0.176-0.075,0.254-0.278,0.179-0.452l-1.224-2.827l-1.365,1.577c-0.125,0.143-0.109,0.36,0.034,0.484
								c0.147,0.124,0.362,0.108,0.485-0.035l0.649-0.749l0.79,1.823C334.601,276.33,334.728,276.408,334.861,276.408z"/>
						</g>
					</g>
					<g id="XMLID_802_">
						<g id="XMLID_814_">
							<path id="XMLID_815_" style="fill:#455A64;" d="M330.675,283.972c0.19,0,0.344-0.154,0.344-0.344v-11.702
								c0-0.19-0.154-0.344-0.344-0.344c-0.19,0-0.344,0.154-0.344,0.344v11.702C330.331,283.818,330.485,283.972,330.675,283.972z"
								/>
						</g>
						<g id="XMLID_805_">
							<path id="XMLID_807_" style="fill:#455A64;" d="M331.681,274.595c0.047,0,0.091-0.009,0.136-0.029
								c0.175-0.075,0.254-0.278,0.179-0.452l-1.224-2.826l-1.365,1.576c-0.125,0.143-0.109,0.36,0.034,0.484
								c0.147,0.123,0.362,0.109,0.486-0.035l0.648-0.749l0.79,1.824C331.422,274.517,331.549,274.595,331.681,274.595z"/>
						</g>
					</g>
				</g>
			</g>
			<g>
				<g id="XMLID_786_">
					<path id="XMLID_794_" style="fill:#FAFAFA;" d="M276.038,235.952l0.001,15.148c0,0.584-0.41,0.82-0.915,0.528l-23.649-13.653
						c-0.505-0.292-0.915-1.001-0.915-1.585l0.001-15.157c0-0.583,0.41-0.82,0.915-0.528l23.648,13.662
						C275.628,234.659,276.038,235.369,276.038,235.952z"/>
				</g>
				<g id="XMLID_277_">
					<g id="XMLID_780_">
						<polygon id="XMLID_785_" style="fill:#455A64;" points="252.025,222.875 252.788,223.316 252.788,237.086 252.025,236.645 
													"/>
					</g>
					<g id="XMLID_778_">
						<polygon id="XMLID_779_" style="fill:#455A64;" points="255.133,224.669 256.45,225.443 256.449,239.213 255.133,238.439 
													"/>
					</g>
					<g id="XMLID_758_">
						<polygon id="XMLID_760_" style="fill:#455A64;" points="258.241,226.463 259.005,226.904 259.005,240.674 258.241,240.233 
													"/>
					</g>
					<g id="XMLID_741_">
						<polygon id="XMLID_746_" style="fill:#455A64;" points="260.585,227.791 262.114,228.697 262.113,242.468 260.585,241.561 
													"/>
					</g>
					<g id="XMLID_735_">
						<polygon id="XMLID_736_" style="fill:#455A64;" points="264.458,230.05 265.222,230.491 265.222,244.261 264.458,243.821 
													"/>
					</g>
					<g id="XMLID_733_">
						<polygon id="XMLID_734_" style="fill:#455A64;" points="266.697,231.314 268.33,232.285 268.33,246.055 266.697,245.084 
													"/>
					</g>
					<g id="XMLID_727_">
						<polygon id="XMLID_730_" style="fill:#455A64;" points="270.675,233.638 271.439,234.079 271.438,247.849 270.675,247.408 
													"/>
					</g>
					<g id="XMLID_722_">
						<polygon id="XMLID_725_" style="fill:#455A64;" points="272.448,234.647 272.83,234.867 272.83,248.638 272.448,248.417 
													"/>
					</g>
					<g id="XMLID_712_">
						<polygon id="XMLID_719_" style="fill:#455A64;" points="269.258,232.888 269.64,233.108 269.639,246.878 269.258,246.658 
													"/>
					</g>
					<g id="XMLID_703_">
						<polygon id="XMLID_708_" style="fill:#455A64;" points="262.997,229.22 263.378,229.441 263.378,243.211 262.997,242.991 
													"/>
					</g>
					<g id="XMLID_701_">
						<polygon id="XMLID_702_" style="fill:#455A64;" points="259.568,227.252 259.95,227.473 259.949,241.243 259.568,241.023 
													"/>
					</g>
					<g id="XMLID_681_">
						<polygon id="XMLID_700_" style="fill:#455A64;" points="257.104,225.892 257.486,226.113 257.486,239.883 257.104,239.663 
													"/>
					</g>
					<g id="XMLID_471_">
						<polygon id="XMLID_671_" style="fill:#455A64;" points="253.765,223.865 254.147,224.085 254.146,237.855 253.765,237.635 
													"/>
					</g>
					<g id="XMLID_402_">
						<polygon id="XMLID_470_" style="fill:#455A64;" points="273.784,235.432 274.547,235.872 274.547,249.643 273.784,249.202 
													"/>
					</g>
				</g>
			</g>
		</g>
	</g>
	<g id="Box_9_">
		<polygon id="Shadow_34_" style="opacity:0.1;" points="246.81,180.194 333.959,230.617 402.253,191.188 314.947,140.782 		"/>
		<g id="Box_4_">
			<g id="XMLID_2436_">
				<polygon id="XMLID_2441_" style="fill:#27DEBF;" points="242.78,152.665 315.896,110.452 401.199,159.701 328.083,201.915 				
					"/>
				<polygon id="XMLID_2438_" style="opacity:0.1;" points="242.78,152.665 315.896,110.452 401.199,159.701 328.083,201.915 				
					"/>
			</g>
			<g>
				<g id="XMLID_2431_">
					<path id="XMLID_2433_" style="fill:#FAFAFA;" d="M281.325,136.188l24.189,13.935c0.438,0.253,0.319,0.73-0.264,1.067
						l-27.308,15.767c-0.583,0.337-1.411,0.405-1.849,0.153l-24.195-13.941c-0.438-0.253-0.319-0.73,0.264-1.067l27.313-15.761
						C280.06,136.003,280.888,135.935,281.325,136.188z"/>
				</g>
				<g>
					<g>
						<path style="fill:#E0E0E0;" d="M269.108,159.9c-0.172,0-0.341-0.09-0.433-0.25c-0.139-0.239-0.057-0.545,0.183-0.683
							l22.671-13.089c0.238-0.14,0.545-0.057,0.683,0.183c0.139,0.239,0.057,0.545-0.183,0.683l-22.671,13.089
							C269.279,159.879,269.193,159.9,269.108,159.9z"/>
					</g>
					<g>
						<path style="fill:#E0E0E0;" d="M271.625,161.342c-0.172,0-0.341-0.09-0.433-0.25c-0.139-0.239-0.057-0.545,0.183-0.683
							l22.671-13.089c0.237-0.139,0.545-0.058,0.683,0.183c0.139,0.239,0.057,0.545-0.183,0.683l-22.671,13.089
							C271.796,161.32,271.711,161.342,271.625,161.342z"/>
					</g>
					<g>
						<path style="fill:#E0E0E0;" d="M274.142,162.784c-0.172,0-0.341-0.09-0.433-0.25c-0.139-0.239-0.057-0.545,0.183-0.683
							l22.671-13.089c0.237-0.139,0.545-0.057,0.683,0.183c0.139,0.239,0.057,0.545-0.183,0.683l-22.671,13.089
							C274.313,162.763,274.227,162.784,274.142,162.784z"/>
					</g>
					<g>
						<path style="fill:#E0E0E0;" d="M276.66,164.227c-0.172,0-0.341-0.09-0.433-0.25c-0.139-0.239-0.057-0.545,0.183-0.683
							l22.671-13.089c0.238-0.14,0.545-0.057,0.683,0.183c0.139,0.239,0.057,0.545-0.183,0.683l-22.671,13.089
							C276.831,164.205,276.745,164.227,276.66,164.227z"/>
					</g>
				</g>
				<g id="XMLID_2131_">
					<g id="XMLID_2415_">
						<polygon id="XMLID_2429_" style="fill:#455A64;" points="254.187,152.537 255.069,152.028 265.396,157.991 264.514,158.5 
													"/>
					</g>
					<g id="XMLID_2342_">
						<polygon id="XMLID_2401_" style="fill:#455A64;" points="257.775,150.465 259.306,149.593 269.633,155.556 268.103,156.427 
													"/>
					</g>
					<g id="XMLID_2226_">
						<polygon id="XMLID_2227_" style="fill:#455A64;" points="261.364,148.392 262.246,147.883 272.574,153.846 271.692,154.355 
													"/>
					</g>
					<g id="XMLID_2213_">
						<polygon id="XMLID_2224_" style="fill:#455A64;" points="264.052,146.819 265.835,145.81 276.162,151.773 274.38,152.782 
													"/>
					</g>
					<g id="XMLID_2201_">
						<polygon id="XMLID_2202_" style="fill:#455A64;" points="268.541,144.247 269.423,143.737 279.751,149.701 278.869,150.21 
													"/>
					</g>
					<g id="XMLID_2195_">
						<polygon id="XMLID_2200_" style="fill:#455A64;" points="271.104,142.742 273.012,141.665 283.339,147.628 281.432,148.705 
													"/>
					</g>
					<g id="XMLID_2168_">
						<polygon id="XMLID_2174_" style="fill:#455A64;" points="275.719,140.101 276.601,139.592 286.928,145.555 286.046,146.064 
													"/>
					</g>
					<g id="XMLID_2165_">
						<polygon id="XMLID_2166_" style="fill:#455A64;" points="277.755,138.913 278.197,138.658 288.524,144.621 288.083,144.876 
													"/>
					</g>
					<g id="XMLID_2147_">
						<polygon id="XMLID_2149_" style="fill:#455A64;" points="274.134,141.076 274.575,140.821 284.902,146.784 284.461,147.038 
													"/>
					</g>
					<g id="XMLID_2141_">
						<polygon id="XMLID_2143_" style="fill:#455A64;" points="266.864,145.227 267.305,144.973 277.632,150.936 277.192,151.19 
													"/>
					</g>
					<g id="XMLID_2138_">
						<polygon id="XMLID_2139_" style="fill:#455A64;" points="262.914,147.518 263.355,147.264 273.682,153.227 273.241,153.481 
													"/>
					</g>
					<g id="XMLID_2136_">
						<polygon id="XMLID_2137_" style="fill:#455A64;" points="260.116,149.187 260.557,148.933 270.884,154.896 270.444,155.15 
													"/>
					</g>
					<g id="XMLID_2134_">
						<polygon id="XMLID_2135_" style="fill:#455A64;" points="256.185,151.371 256.626,151.116 266.953,157.079 266.513,157.333 
													"/>
					</g>
					<g id="XMLID_2132_">
						<polygon id="XMLID_2133_" style="fill:#455A64;" points="279.308,138.029 280.189,137.52 290.517,143.483 289.635,143.992 
													"/>
					</g>
				</g>
			</g>
			<g id="XMLID_2107_">
				<polygon id="XMLID_2130_" style="fill:#27DEBF;" points="328.082,230.057 242.78,180.807 242.779,152.665 328.082,201.914 				
					"/>
			</g>
			<g id="XMLID_2457_" style="opacity:0.2;">
				<polygon id="XMLID_2461_" points="328.082,230.057 242.78,180.807 242.779,152.665 328.082,201.914 				"/>
			</g>
			<g id="XMLID_2100_">
				<polygon id="XMLID_2104_" style="fill:#27DEBF;" points="328.083,230.057 401.199,187.843 401.199,159.701 328.083,201.915 				
					"/>
				<polygon id="XMLID_2103_" style="opacity:0.3;" points="328.083,230.057 401.199,187.843 401.199,159.701 328.083,201.915 				
					"/>
			</g>
			<g>
				<g id="XMLID_2097_">
					<polygon id="XMLID_2099_" style="fill:#37474F;" points="372.226,185.519 366.312,188.933 366.312,179.756 372.226,176.341 
											"/>
				</g>
				<g id="XMLID_2094_">
					<polygon id="XMLID_2095_" style="fill:#455A64;" points="366.312,179.757 281.009,130.508 286.923,127.092 372.226,176.341 
											"/>
				</g>
			</g>
			<g>
				<g id="XMLID_2081_">
					<g id="XMLID_2088_">
						<path id="XMLID_2089_" style="fill:#455A64;" d="M294.731,201.163c-1.184-0.684-2.112-2.438-2.112-3.992v-6.111l4.288,2.518
							l0.279-0.05v0.405c0,0.003,0,0.007,0,0.011v5.468c0,0.87-0.306,1.548-0.838,1.856c-0.206,0.118-0.432,0.177-0.672,0.177
							C295.376,201.445,295.054,201.35,294.731,201.163z M295.208,194.579l-0.313,2.144h-1.587v0.448
							c0,1.288,0.81,2.843,1.768,3.398c0.253,0.143,0.618,0.281,0.93,0.102c0.314-0.181,0.495-0.641,0.495-1.259v-5.064
							L295.208,194.579z M294.599,193.988l1.266-0.226l-2.558-1.503v3.776h0.992L294.599,193.988z"/>
					</g>
					<g id="XMLID_2086_">
						<path id="XMLID_2087_" style="fill:#455A64;" d="M294.904,205.805c0.19,0,0.344-0.154,0.344-0.344v-4.594
							c0-0.19-0.154-0.344-0.344-0.344c-0.19,0-0.344,0.154-0.344,0.344v4.594C294.56,205.65,294.713,205.805,294.904,205.805z"/>
					</g>
					<g id="XMLID_2084_">
						<path id="XMLID_2085_" style="fill:#455A64;" d="M296.901,206.956c0.118,0,0.235-0.061,0.297-0.172
							c0.095-0.165,0.039-0.374-0.125-0.469l-3.994-2.305c-0.161-0.099-0.375-0.043-0.469,0.125
							c-0.095,0.165-0.039,0.374,0.125,0.469l3.994,2.305C296.782,206.942,296.841,206.956,296.901,206.956z"/>
					</g>
				</g>
				<g id="XMLID_2040_">
					<g id="XMLID_2046_">
						<path id="XMLID_2077_" style="fill:#455A64;" d="M308.869,214.057c0.134,0,0.261-0.032,0.376-0.097
							c0.262-0.15,0.412-0.451,0.412-0.827v-0.942c0-0.19-0.154-0.344-0.344-0.344c-0.19,0-0.344,0.154-0.344,0.344v0.942
							c0,0.141-0.039,0.215-0.066,0.231c-0.027,0.014-0.108,0.009-0.224-0.059c-0.303-0.179-0.639-0.861-0.639-1.555v-6.11
							c0-0.19-0.154-0.344-0.344-0.344c-0.19,0-0.344,0.154-0.344,0.344v6.11c0,0.895,0.419,1.818,0.976,2.146
							C308.51,214.003,308.695,214.057,308.869,214.057z"/>
					</g>
					<g id="XMLID_2041_">
						<path id="XMLID_2043_" style="fill:#455A64;" d="M303.35,203.436v-0.199c0-1.431,0.5-2.508,1.41-3.033
							c0.906-0.525,2.092-0.419,3.333,0.296c2.425,1.4,4.397,4.818,4.397,7.62v0.597L303.35,203.436z M305.104,200.8
							c-0.648,0.374-1.023,1.166-1.062,2.242l7.729,4.464c-0.254-2.45-1.961-5.22-4.021-6.409c-0.613-0.354-1.197-0.533-1.716-0.533
							C305.691,200.563,305.378,200.641,305.104,200.8z"/>
					</g>
				</g>
				<g id="XMLID_1922_">
					<g id="XMLID_1990_">
						<g id="XMLID_2038_">
							<path id="XMLID_2039_" style="fill:#455A64;" d="M322.693,221.77c0.19,0,0.344-0.154,0.344-0.344v-11.702
								c0-0.19-0.154-0.344-0.344-0.344c-0.19,0-0.344,0.154-0.344,0.344v11.702C322.349,221.616,322.503,221.77,322.693,221.77z"/>
						</g>
						<g id="XMLID_2030_">
							<path id="XMLID_2031_" style="fill:#455A64;" d="M323.697,212.393c0.047,0,0.091-0.009,0.136-0.029
								c0.176-0.075,0.254-0.278,0.179-0.452l-1.223-2.827l-1.365,1.577c-0.125,0.143-0.109,0.36,0.034,0.484
								c0.147,0.124,0.362,0.109,0.486-0.035l0.648-0.749l0.79,1.823C323.437,212.315,323.565,212.393,323.697,212.393z"/>
						</g>
					</g>
					<g id="XMLID_1943_">
						<g id="XMLID_1988_">
							<path id="XMLID_1989_" style="fill:#455A64;" d="M319.511,219.957c0.19,0,0.344-0.154,0.344-0.344v-11.702
								c0-0.19-0.154-0.344-0.344-0.344c-0.19,0-0.344,0.154-0.344,0.344v11.702C319.167,219.803,319.321,219.957,319.511,219.957z"
								/>
						</g>
						<g id="XMLID_1979_">
							<path id="XMLID_1981_" style="fill:#455A64;" d="M320.518,210.579c0.047,0,0.091-0.009,0.136-0.029
								c0.175-0.075,0.254-0.278,0.179-0.452l-1.223-2.826l-1.365,1.576c-0.125,0.143-0.109,0.36,0.034,0.484
								c0.147,0.123,0.362,0.109,0.486-0.035l0.648-0.749l0.79,1.824C320.258,210.501,320.385,210.579,320.518,210.579z"/>
						</g>
					</g>
				</g>
			</g>
			<g>
				<g id="XMLID_1912_">
					<path id="XMLID_1914_" style="fill:#FAFAFA;" d="M270.569,175.339l0.001,15.148c0,0.584-0.409,0.82-0.915,0.528l-23.649-13.653
						c-0.505-0.292-0.915-1.001-0.915-1.585l0.001-15.157c0-0.583,0.41-0.82,0.915-0.528l23.648,13.662
						C270.16,174.046,270.569,174.755,270.569,175.339z"/>
				</g>
				<g id="XMLID_1431_">
					<g id="XMLID_1909_">
						<polygon id="XMLID_1910_" style="fill:#455A64;" points="246.556,162.261 247.32,162.702 247.319,176.473 246.556,176.032 
													"/>
					</g>
					<g id="XMLID_1906_">
						<polygon id="XMLID_1907_" style="fill:#455A64;" points="249.664,164.055 250.981,164.829 250.98,178.6 249.664,177.825 
													"/>
					</g>
					<g id="XMLID_1901_">
						<polygon id="XMLID_1902_" style="fill:#455A64;" points="252.773,165.849 253.537,166.29 253.536,180.06 252.773,179.619 
													"/>
					</g>
					<g id="XMLID_1877_">
						<polygon id="XMLID_1878_" style="fill:#455A64;" points="255.117,167.178 256.645,168.084 256.645,181.854 255.117,180.948 
													"/>
					</g>
					<g id="XMLID_1845_">
						<polygon id="XMLID_1874_" style="fill:#455A64;" points="258.99,169.436 259.754,169.877 259.753,183.648 258.989,183.207 
													"/>
					</g>
					<g id="XMLID_1843_">
						<polygon id="XMLID_1844_" style="fill:#455A64;" points="261.228,170.7 262.862,171.671 262.861,185.441 261.228,184.47 
													"/>
					</g>
					<g id="XMLID_1812_">
						<polygon id="XMLID_1813_" style="fill:#455A64;" points="265.207,173.024 265.97,173.465 265.97,187.235 265.206,186.794 
													"/>
					</g>
					<g id="XMLID_1736_">
						<polygon id="XMLID_1811_" style="fill:#455A64;" points="266.98,174.033 267.362,174.254 267.361,188.024 266.979,187.803 
													"/>
					</g>
					<g id="XMLID_1693_">
						<polygon id="XMLID_1694_" style="fill:#455A64;" points="263.789,172.274 264.171,172.495 264.171,186.265 263.789,186.044 
													"/>
					</g>
					<g id="XMLID_1489_">
						<polygon id="XMLID_1578_" style="fill:#455A64;" points="257.528,168.607 257.91,168.827 257.909,182.597 257.528,182.377 
													"/>
					</g>
					<g id="XMLID_1487_">
						<polygon id="XMLID_1488_" style="fill:#455A64;" points="254.099,166.639 254.481,166.859 254.48,180.629 254.099,180.409 
													"/>
					</g>
					<g id="XMLID_1483_">
						<polygon id="XMLID_1486_" style="fill:#455A64;" points="251.636,165.279 252.018,165.499 252.017,179.269 251.636,179.049 
													"/>
					</g>
					<g id="XMLID_1481_">
						<polygon id="XMLID_1482_" style="fill:#455A64;" points="248.296,163.251 248.678,163.472 248.678,177.242 248.296,177.021 
													"/>
					</g>
					<g id="XMLID_1463_">
						<polygon id="XMLID_1470_" style="fill:#455A64;" points="268.315,174.818 269.078,175.259 269.078,189.029 268.315,188.588 
													"/>
					</g>
				</g>
			</g>
		</g>
	</g>
	<g id="Box_8_">
		<polygon id="Shadow_43_" style="opacity:0.1;" points="283.53,344.764 216.72,383.29 166.712,354.383 233.675,315.942 		"/>
		<g id="Box_5_">
			<g id="XMLID_3233_">
				<polygon id="XMLID_3235_" style="fill:#27DEBF;" points="172.813,231.245 233.743,196.066 278.425,221.863 217.495,257.041 				
					"/>
				<polygon id="XMLID_3234_" style="opacity:0.1;" points="172.813,231.245 233.743,196.066 278.425,221.863 217.495,257.041 				
					"/>
			</g>
			<g>
				<g id="XMLID_3228_">
					<path id="XMLID_3232_" style="fill:#FAFAFA;" d="M233.15,201.121l-18.702,10.774c-0.338,0.195-0.247,0.565,0.204,0.825
						l21.113,12.19c0.451,0.26,1.091,0.313,1.429,0.118L255.9,214.25c0.338-0.195,0.247-0.565-0.204-0.825l-21.117-12.186
						C234.128,200.979,233.488,200.926,233.15,201.121z"/>
				</g>
				<g>
					<g>
						<path style="fill:#E0E0E0;" d="M242.596,219.455c0.133,0,0.264-0.07,0.335-0.193c0.107-0.185,0.044-0.421-0.141-0.528
							l-17.528-10.12c-0.184-0.108-0.421-0.044-0.528,0.141c-0.107,0.185-0.044,0.421,0.141,0.528l17.528,10.119
							C242.464,219.438,242.53,219.455,242.596,219.455z"/>
					</g>
					<g>
						<path style="fill:#E0E0E0;" d="M240.649,220.569c0.133,0,0.264-0.07,0.335-0.193c0.107-0.185,0.044-0.421-0.141-0.528
							l-17.528-10.119c-0.183-0.107-0.421-0.045-0.528,0.141c-0.107,0.185-0.044,0.421,0.141,0.528l17.528,10.12
							C240.517,220.552,240.583,220.569,240.649,220.569z"/>
					</g>
					<g>
						<path style="fill:#E0E0E0;" d="M238.704,221.684c0.133,0,0.263-0.069,0.334-0.193c0.107-0.185,0.044-0.421-0.141-0.528
							l-17.528-10.12c-0.183-0.107-0.421-0.044-0.528,0.141c-0.107,0.185-0.044,0.421,0.141,0.528l17.528,10.119
							C238.571,221.667,238.638,221.684,238.704,221.684z"/>
					</g>
					<g>
						<path style="fill:#E0E0E0;" d="M236.757,222.799c0.133,0,0.264-0.07,0.335-0.193c0.107-0.185,0.044-0.421-0.141-0.528
							l-17.528-10.119c-0.184-0.108-0.421-0.044-0.528,0.141c-0.107,0.185-0.044,0.421,0.141,0.528l17.528,10.119
							C236.625,222.783,236.691,222.799,236.757,222.799z"/>
					</g>
				</g>
				<g id="XMLID_2996_">
					<g id="XMLID_3204_">
						<polygon id="XMLID_3205_" style="fill:#455A64;" points="254.132,213.762 253.45,213.368 245.465,217.978 246.147,218.372 
													"/>
					</g>
					<g id="XMLID_3202_">
						<polygon id="XMLID_3203_" style="fill:#455A64;" points="251.357,212.16 250.174,211.486 242.189,216.096 243.373,216.769 
													"/>
					</g>
					<g id="XMLID_3200_">
						<polygon id="XMLID_3201_" style="fill:#455A64;" points="248.583,210.557 247.9,210.163 239.916,214.773 240.598,215.167 
													"/>
					</g>
					<g id="XMLID_3198_">
						<polygon id="XMLID_3199_" style="fill:#455A64;" points="246.504,209.341 245.126,208.561 237.142,213.171 238.52,213.951 
													"/>
					</g>
					<g id="XMLID_3196_">
						<polygon id="XMLID_3197_" style="fill:#455A64;" points="243.034,207.352 242.352,206.958 234.367,211.569 235.049,211.962 
													"/>
					</g>
					<g id="XMLID_3194_">
						<polygon id="XMLID_3195_" style="fill:#455A64;" points="241.052,206.189 239.577,205.356 231.593,209.966 233.067,210.799 
													"/>
					</g>
					<g id="XMLID_3099_">
						<polygon id="XMLID_3193_" style="fill:#455A64;" points="237.484,204.147 236.803,203.753 228.818,208.364 229.5,208.757 
													"/>
					</g>
					<g id="XMLID_3094_">
						<polygon id="XMLID_3098_" style="fill:#455A64;" points="235.91,203.228 235.569,203.031 227.585,207.642 227.925,207.838 
													"/>
					</g>
					<g id="XMLID_3036_">
						<polygon id="XMLID_3044_" style="fill:#455A64;" points="238.71,204.9 238.369,204.704 230.385,209.314 230.725,209.51 						
							"/>
					</g>
					<g id="XMLID_3011_">
						<polygon id="XMLID_3027_" style="fill:#455A64;" points="244.33,208.11 243.989,207.913 236.005,212.523 236.346,212.72 
													"/>
					</g>
					<g id="XMLID_3009_">
						<polygon id="XMLID_3010_" style="fill:#455A64;" points="247.385,209.882 247.044,209.685 239.059,214.295 239.4,214.492 
													"/>
					</g>
					<g id="XMLID_3001_">
						<polygon id="XMLID_3002_" style="fill:#455A64;" points="249.548,211.172 249.207,210.975 241.222,215.585 241.563,215.782 
													"/>
					</g>
					<g id="XMLID_2999_">
						<polygon id="XMLID_3000_" style="fill:#455A64;" points="252.587,212.86 252.246,212.663 244.261,217.273 244.602,217.47 
													"/>
					</g>
					<g id="XMLID_2997_">
						<polygon id="XMLID_2998_" style="fill:#455A64;" points="234.71,202.545 234.028,202.151 226.044,206.761 226.725,207.155 
													"/>
					</g>
				</g>
			</g>
			<g id="XMLID_2994_">
				<polygon id="XMLID_2995_" style="fill:#27DEBF;" points="217.495,379.012 172.813,353.215 172.813,231.244 217.495,257.041 				
					"/>
			</g>
			<g id="XMLID_2992_" style="opacity:0.2;">
				<polygon id="XMLID_2993_" points="217.495,379.012 172.813,353.215 172.813,231.244 217.495,257.041 				"/>
			</g>
			<g id="XMLID_2989_">
				<polygon id="XMLID_2991_" style="fill:#27DEBF;" points="217.495,379.012 278.426,343.834 278.425,221.863 217.495,257.041 				
					"/>
				<polygon id="XMLID_2990_" style="opacity:0.3;" points="217.495,379.012 278.426,343.834 278.425,221.863 217.495,257.041 				
					"/>
			</g>
			<g>
				<g id="XMLID_2987_">
					<polygon id="XMLID_2988_" style="fill:#37474F;" points="249.991,247.457 244.078,250.871 244.078,241.694 249.991,238.28 
											"/>
				</g>
				<g id="XMLID_2985_">
					<polygon id="XMLID_2986_" style="fill:#455A64;" points="244.078,241.695 199.396,215.898 205.309,212.483 249.991,238.28 
											"/>
				</g>
			</g>
			<g>
				<g id="XMLID_2967_">
					<g id="XMLID_2980_">
						<path id="XMLID_2981_" style="fill:#455A64;" d="M184.144,350.118c-1.184-0.684-2.112-2.438-2.112-3.992v-6.111l4.288,2.518
							l0.279-0.05v0.405c0,0.004,0,0.007,0,0.011v5.469c0,0.87-0.306,1.548-0.838,1.855c-0.206,0.118-0.432,0.177-0.672,0.177
							C184.788,350.4,184.466,350.305,184.144,350.118z M184.62,343.534l-0.313,2.144h-1.587v0.448c0,1.288,0.81,2.843,1.768,3.398
							c0.252,0.143,0.618,0.281,0.929,0.102c0.313-0.181,0.495-0.641,0.495-1.259v-5.064L184.62,343.534z M184.011,342.943
							l1.266-0.225l-2.558-1.503v3.776h0.992L184.011,342.943z"/>
					</g>
					<g id="XMLID_2978_">
						<path id="XMLID_2979_" style="fill:#455A64;" d="M184.316,354.759c0.19,0,0.344-0.154,0.344-0.344v-4.594
							c0-0.19-0.154-0.344-0.344-0.344c-0.19,0-0.344,0.154-0.344,0.344v4.594C183.972,354.605,184.126,354.759,184.316,354.759z"/>
					</g>
					<g id="XMLID_2971_">
						<path id="XMLID_2977_" style="fill:#455A64;" d="M186.313,355.911c0.118,0,0.235-0.061,0.297-0.172
							c0.095-0.165,0.04-0.374-0.125-0.469l-3.994-2.305c-0.161-0.098-0.375-0.043-0.469,0.126c-0.095,0.165-0.04,0.374,0.125,0.469
							l3.994,2.305C186.195,355.897,186.254,355.911,186.313,355.911z"/>
					</g>
				</g>
				<g id="XMLID_2916_">
					<g id="XMLID_2926_">
						<path id="XMLID_2959_" style="fill:#455A64;" d="M198.281,363.012c0.134,0,0.262-0.032,0.376-0.097
							c0.261-0.15,0.412-0.451,0.412-0.827v-0.942c0-0.19-0.154-0.344-0.344-0.344s-0.344,0.154-0.344,0.344v0.942
							c0,0.141-0.039,0.215-0.066,0.231c-0.027,0.014-0.108,0.009-0.224-0.059c-0.303-0.179-0.639-0.862-0.639-1.555v-6.11
							c0-0.19-0.154-0.344-0.344-0.344c-0.19,0-0.344,0.154-0.344,0.344v6.11c0,0.895,0.419,1.818,0.976,2.146
							C197.923,362.958,198.107,363.012,198.281,363.012z"/>
					</g>
					<g id="XMLID_2918_">
						<path id="XMLID_2919_" style="fill:#455A64;" d="M192.762,352.391v-0.199c0-1.431,0.5-2.508,1.41-3.033
							c0.906-0.525,2.092-0.419,3.333,0.296c2.425,1.4,4.397,4.818,4.397,7.62v0.596L192.762,352.391z M194.516,349.755
							c-0.648,0.374-1.023,1.166-1.062,2.242l7.729,4.464c-0.254-2.45-1.961-5.22-4.021-6.409c-0.613-0.354-1.197-0.533-1.716-0.533
							C195.103,349.518,194.79,349.596,194.516,349.755z"/>
					</g>
				</g>
				<g id="XMLID_2868_">
					<g id="XMLID_2874_">
						<g id="XMLID_2890_">
							<path id="XMLID_2905_" style="fill:#455A64;" d="M212.105,370.725c0.19,0,0.344-0.154,0.344-0.344v-11.702
								c0-0.19-0.154-0.344-0.344-0.344c-0.19,0-0.344,0.154-0.344,0.344v11.702C211.761,370.571,211.915,370.725,212.105,370.725z"
								/>
						</g>
						<g id="XMLID_2875_">
							<path id="XMLID_2876_" style="fill:#455A64;" d="M213.109,361.348c0.047,0,0.091-0.009,0.136-0.029
								c0.176-0.075,0.254-0.278,0.179-0.452l-1.223-2.827l-1.365,1.577c-0.126,0.143-0.109,0.36,0.034,0.484
								c0.147,0.124,0.362,0.108,0.486-0.035l0.648-0.749l0.79,1.823C212.85,361.27,212.977,361.348,213.109,361.348z"/>
						</g>
					</g>
					<g id="XMLID_2869_">
						<g id="XMLID_2872_">
							<path id="XMLID_2873_" style="fill:#455A64;" d="M208.924,368.912c0.19,0,0.344-0.154,0.344-0.344v-11.702
								c0-0.19-0.154-0.344-0.344-0.344c-0.19,0-0.344,0.154-0.344,0.344v11.702C208.58,368.758,208.734,368.912,208.924,368.912z"
								/>
						</g>
						<g id="XMLID_2870_">
							<path id="XMLID_2871_" style="fill:#455A64;" d="M209.93,359.534c0.047,0,0.091-0.009,0.136-0.029
								c0.175-0.075,0.254-0.278,0.179-0.452l-1.224-2.826l-1.365,1.576c-0.125,0.143-0.109,0.36,0.034,0.484
								c0.147,0.123,0.362,0.109,0.486-0.035l0.648-0.749l0.79,1.824C209.67,359.457,209.798,359.534,209.93,359.534z"/>
						</g>
					</g>
				</g>
			</g>
			<g>
				<g id="XMLID_2866_">
					<path id="XMLID_2867_" style="fill:#FAFAFA;" d="M213.432,333.376l0.001,15.148c0,0.583-0.41,0.82-0.915,0.528l-23.649-13.653
						c-0.505-0.292-0.915-1.001-0.915-1.585l0.001-15.157c0-0.583,0.41-0.82,0.915-0.528l23.648,13.662
						C213.023,332.083,213.432,332.793,213.432,333.376z"/>
				</g>
				<g id="XMLID_2462_">
					<g id="XMLID_2864_">
						<polygon id="XMLID_2865_" style="fill:#455A64;" points="189.419,320.299 190.183,320.74 190.182,334.51 189.419,334.069 
													"/>
					</g>
					<g id="XMLID_2853_">
						<polygon id="XMLID_2862_" style="fill:#455A64;" points="192.527,322.093 193.844,322.867 193.843,336.637 192.527,335.863 
													"/>
					</g>
					<g id="XMLID_2851_">
						<polygon id="XMLID_2852_" style="fill:#455A64;" points="195.636,323.887 196.4,324.328 196.399,338.098 195.636,337.657 
													"/>
					</g>
					<g id="XMLID_2813_">
						<polygon id="XMLID_2847_" style="fill:#455A64;" points="197.98,325.215 199.508,326.121 199.508,339.892 197.979,338.985 
													"/>
					</g>
					<g id="XMLID_2811_">
						<polygon id="XMLID_2812_" style="fill:#455A64;" points="201.853,327.474 202.617,327.915 202.616,341.685 201.852,341.245 
													"/>
					</g>
					<g id="XMLID_2784_">
						<polygon id="XMLID_2810_" style="fill:#455A64;" points="204.091,328.738 205.725,329.709 205.724,343.479 204.091,342.508 
													"/>
					</g>
					<g id="XMLID_2776_">
						<polygon id="XMLID_2782_" style="fill:#455A64;" points="208.07,331.062 208.833,331.503 208.833,345.273 208.069,344.832 
													"/>
					</g>
					<g id="XMLID_2743_">
						<polygon id="XMLID_2775_" style="fill:#455A64;" points="209.843,332.071 210.225,332.292 210.224,346.062 209.842,345.841 
													"/>
					</g>
					<g id="XMLID_2648_">
						<polygon id="XMLID_2650_" style="fill:#455A64;" points="206.652,330.312 207.034,330.532 207.034,344.303 206.652,344.082 
													"/>
					</g>
					<g id="XMLID_2638_">
						<polygon id="XMLID_2639_" style="fill:#455A64;" points="200.391,326.644 200.773,326.865 200.772,340.635 200.391,340.415 
													"/>
					</g>
					<g id="XMLID_2636_">
						<polygon id="XMLID_2637_" style="fill:#455A64;" points="196.962,324.677 197.344,324.897 197.343,338.667 196.962,338.447 
													"/>
					</g>
					<g id="XMLID_2634_">
						<polygon id="XMLID_2635_" style="fill:#455A64;" points="194.499,323.316 194.88,323.537 194.88,337.307 194.499,337.087 
													"/>
					</g>
					<g id="XMLID_2563_">
						<polygon id="XMLID_2633_" style="fill:#455A64;" points="191.159,321.289 191.541,321.509 191.541,335.28 191.159,335.059 
													"/>
					</g>
					<g id="XMLID_2521_">
						<polygon id="XMLID_2562_" style="fill:#455A64;" points="211.178,332.856 211.941,333.297 211.941,347.067 211.178,346.626 
													"/>
					</g>
				</g>
			</g>
		</g>
	</g>
	<g id="Box_7_">
		<polygon id="Shadow_35_" style="opacity:0.1;" points="338.167,376.273 271.356,414.799 220.058,385.258 287.021,346.817 		"/>
		<g id="Box_6_">
			<g id="XMLID_3779_">
				<polygon id="XMLID_3781_" style="fill:#27DEBF;" points="227.815,325.621 288.746,290.443 333.427,316.239 272.497,351.418 				
					"/>
			</g>
			<g id="XMLID_3780_" style="opacity:0.3;">
				<polygon id="XMLID_3784_" style="fill:#FFFFFF;" points="227.815,325.621 288.746,290.443 333.427,316.239 272.497,351.418 				
					"/>
			</g>
			<g>
				<g id="XMLID_3777_">
					<path id="XMLID_3778_" style="fill:#FAFAFA;" d="M288.152,295.497l-18.702,10.774c-0.338,0.195-0.247,0.565,0.204,0.825
						l21.112,12.19c0.451,0.26,1.091,0.313,1.429,0.118l18.706-10.778c0.338-0.195,0.247-0.565-0.204-0.825l-21.117-12.186
						C289.131,295.355,288.491,295.302,288.152,295.497z"/>
				</g>
				<g>
					<g>
						<path style="fill:#E0E0E0;" d="M297.598,313.831c0.133,0,0.263-0.07,0.335-0.193c0.107-0.185,0.044-0.421-0.141-0.528
							l-17.528-10.119c-0.184-0.108-0.421-0.044-0.528,0.141c-0.107,0.185-0.044,0.421,0.141,0.528l17.528,10.119
							C297.466,313.814,297.532,313.831,297.598,313.831z"/>
					</g>
					<g>
						<path style="fill:#E0E0E0;" d="M295.651,314.945c0.133,0,0.264-0.069,0.335-0.193c0.107-0.185,0.044-0.421-0.141-0.528
							l-17.528-10.119c-0.184-0.107-0.421-0.045-0.528,0.141c-0.107,0.185-0.044,0.421,0.141,0.528l17.528,10.12
							C295.519,314.929,295.586,314.945,295.651,314.945z"/>
					</g>
					<g>
						<path style="fill:#E0E0E0;" d="M293.706,316.06c0.133,0,0.263-0.069,0.335-0.193c0.107-0.185,0.044-0.421-0.141-0.528
							l-17.528-10.12c-0.183-0.107-0.421-0.044-0.528,0.141c-0.107,0.185-0.044,0.421,0.141,0.528l17.528,10.119
							C293.574,316.044,293.64,316.06,293.706,316.06z"/>
					</g>
					<g>
						<path style="fill:#E0E0E0;" d="M291.759,317.176c0.133,0,0.263-0.07,0.335-0.193c0.107-0.185,0.044-0.421-0.141-0.528
							l-17.528-10.12c-0.184-0.108-0.421-0.044-0.528,0.141c-0.107,0.185-0.044,0.421,0.141,0.528l17.528,10.12
							C291.627,317.159,291.694,317.176,291.759,317.176z"/>
					</g>
				</g>
				<g id="XMLID_3729_">
					<g id="XMLID_3775_">
						<polygon id="XMLID_3776_" style="fill:#455A64;" points="309.134,308.138 308.452,307.744 300.468,312.355 301.149,312.748 
													"/>
					</g>
					<g id="XMLID_3773_">
						<polygon id="XMLID_3774_" style="fill:#455A64;" points="306.359,306.536 305.176,305.862 297.192,310.472 298.375,311.146 
													"/>
					</g>
					<g id="XMLID_3771_">
						<polygon id="XMLID_3772_" style="fill:#455A64;" points="303.585,304.933 302.903,304.539 294.918,309.15 295.6,309.543 
													"/>
					</g>
					<g id="XMLID_3769_">
						<polygon id="XMLID_3770_" style="fill:#455A64;" points="301.507,303.717 300.129,302.937 292.144,307.547 293.522,308.327 
													"/>
					</g>
					<g id="XMLID_3767_">
						<polygon id="XMLID_3768_" style="fill:#455A64;" points="298.036,301.728 297.354,301.335 289.37,305.945 290.051,306.338 
													"/>
					</g>
					<g id="XMLID_3765_">
						<polygon id="XMLID_3766_" style="fill:#455A64;" points="296.054,300.565 294.579,299.732 286.595,304.342 288.07,305.175 
													"/>
					</g>
					<g id="XMLID_3762_">
						<polygon id="XMLID_3763_" style="fill:#455A64;" points="292.487,298.523 291.805,298.13 283.821,302.74 284.502,303.133 
													"/>
					</g>
					<g id="XMLID_3760_">
						<polygon id="XMLID_3761_" style="fill:#455A64;" points="290.912,297.604 290.571,297.408 282.587,302.018 282.928,302.215 
													"/>
					</g>
					<g id="XMLID_3758_">
						<polygon id="XMLID_3759_" style="fill:#455A64;" points="293.712,299.277 293.371,299.08 285.387,303.69 285.728,303.887 
													"/>
					</g>
					<g id="XMLID_3755_">
						<polygon id="XMLID_3757_" style="fill:#455A64;" points="299.333,302.486 298.992,302.29 291.008,306.9 291.348,307.096 
													"/>
					</g>
					<g id="XMLID_3752_">
						<polygon id="XMLID_3754_" style="fill:#455A64;" points="302.387,304.258 302.046,304.061 294.062,308.671 294.402,308.868 
													"/>
					</g>
					<g id="XMLID_3747_">
						<polygon id="XMLID_3751_" style="fill:#455A64;" points="304.55,305.548 304.209,305.351 296.225,309.961 296.565,310.158 
													"/>
					</g>
					<g id="XMLID_3734_">
						<polygon id="XMLID_3746_" style="fill:#455A64;" points="307.589,307.236 307.248,307.039 299.264,311.65 299.604,311.846 
													"/>
					</g>
					<g id="XMLID_3730_">
						<polygon id="XMLID_3732_" style="fill:#455A64;" points="289.712,296.921 289.03,296.527 281.046,301.138 281.728,301.531 
													"/>
					</g>
				</g>
			</g>
			<g id="XMLID_3726_">
				<polygon id="XMLID_3727_" style="fill:#27DEBF;" points="272.497,410.767 227.815,384.97 227.815,325.62 272.497,351.417 				
					"/>
			</g>
			<g id="XMLID_3724_">
				<polygon id="XMLID_3725_" style="fill:#27DEBF;" points="272.497,410.767 227.815,384.97 227.815,325.62 272.497,351.417 				
					"/>
			</g>
			<g id="XMLID_3717_">
				<polygon id="XMLID_3723_" style="fill:#27DEBF;" points="272.497,410.768 333.428,375.59 333.427,316.239 272.497,351.418 				
					"/>
				<polygon id="XMLID_3719_" style="opacity:0.1;" points="272.497,410.768 333.428,375.59 333.427,316.239 272.497,351.418 				
					"/>
			</g>
			<g>
				<g id="XMLID_3665_">
					<polygon id="XMLID_3666_" style="fill:#37474F;" points="304.993,341.833 299.08,345.247 299.08,336.07 304.993,332.656 					
						"/>
				</g>
				<g id="XMLID_3659_">
					<polygon id="XMLID_3660_" style="fill:#455A64;" points="299.08,336.071 254.398,310.274 260.312,306.859 304.993,332.656 
											"/>
				</g>
			</g>
			<g>
				<g id="XMLID_3644_">
					<g id="XMLID_3654_">
						<path id="XMLID_3655_" style="fill:#455A64;" d="M327.792,369.882c-0.158,0-0.307-0.039-0.442-0.117
							c-0.351-0.203-0.552-0.649-0.552-1.222v-3.603c0-0.002,0-0.005,0-0.007v-0.267l0.184,0.033l2.825-1.659v4.026
							c0,1.024-0.611,2.18-1.391,2.63C328.203,369.819,327.991,369.882,327.792,369.882z M327.251,365.207v3.336
							c0,0.407,0.119,0.71,0.326,0.829c0.205,0.118,0.446,0.027,0.612-0.067c0.631-0.366,1.165-1.39,1.165-2.239v-0.295h-1.046
							l-0.206-1.412L327.251,365.207z M328.7,366.318h0.654v-2.488l-1.685,0.99l0.834,0.149L328.7,366.318z"/>
					</g>
					<g id="XMLID_3652_">
						<path id="XMLID_3653_" style="fill:#455A64;" d="M328.302,372.754c-0.125,0-0.227-0.102-0.227-0.227v-3.027
							c0-0.125,0.102-0.227,0.227-0.227c0.125,0,0.227,0.101,0.227,0.227v3.027C328.529,372.653,328.427,372.754,328.302,372.754z"
							/>
					</g>
					<g id="XMLID_3645_">
						<path id="XMLID_3647_" style="fill:#455A64;" d="M326.986,373.513c-0.078,0-0.155-0.04-0.196-0.113
							c-0.063-0.108-0.026-0.247,0.082-0.309l2.632-1.519c0.106-0.065,0.247-0.028,0.309,0.083c0.063,0.108,0.026,0.247-0.083,0.309
							l-2.632,1.519C327.064,373.504,327.025,373.513,326.986,373.513z"/>
					</g>
				</g>
				<g id="XMLID_3595_">
					<g id="XMLID_3642_">
						<path id="XMLID_3643_" style="fill:#455A64;" d="M319.102,378.191c-0.089,0-0.172-0.021-0.248-0.064
							c-0.172-0.099-0.271-0.297-0.271-0.545v-0.621c0-0.125,0.102-0.227,0.227-0.227c0.125,0,0.227,0.101,0.227,0.227v0.621
							c0,0.093,0.026,0.142,0.044,0.152c0.018,0.01,0.071,0.006,0.148-0.039c0.199-0.118,0.421-0.568,0.421-1.024v-4.025
							c0-0.125,0.102-0.227,0.227-0.227s0.227,0.102,0.227,0.227v4.025c0,0.59-0.276,1.198-0.643,1.414
							C319.338,378.156,319.216,378.191,319.102,378.191z"/>
					</g>
					<g id="XMLID_3597_">
						<path id="XMLID_3598_" style="fill:#455A64;" d="M316.716,374.672v-0.393c0-1.846,1.299-4.098,2.897-5.02
							c0.818-0.471,1.599-0.541,2.196-0.195c0.6,0.346,0.929,1.056,0.929,1.998v0.131L316.716,374.672z M320.97,369.301
							c-0.342,0-0.727,0.118-1.13,0.351c-1.357,0.783-2.482,2.608-2.649,4.222l5.092-2.941c-0.026-0.709-0.273-1.23-0.7-1.477
							C321.401,369.352,321.195,369.301,320.97,369.301z"/>
					</g>
				</g>
				<g id="XMLID_3566_">
					<g id="XMLID_3574_">
						<g id="XMLID_3578_">
							<path id="XMLID_3594_" style="fill:#455A64;" d="M309.995,383.272c-0.125,0-0.227-0.101-0.227-0.227v-7.709
								c0-0.125,0.101-0.227,0.227-0.227c0.125,0,0.227,0.102,0.227,0.227v7.709C310.221,383.171,310.12,383.272,309.995,383.272z"
								/>
						</g>
						<g id="XMLID_3575_">
							<path id="XMLID_3577_" style="fill:#455A64;" d="M309.333,377.095c-0.031,0-0.06-0.006-0.09-0.019
								c-0.116-0.05-0.167-0.183-0.118-0.298l0.806-1.862l0.899,1.039c0.083,0.094,0.072,0.237-0.022,0.319
								c-0.097,0.081-0.238,0.071-0.32-0.023l-0.427-0.493l-0.521,1.201C309.504,377.043,309.42,377.095,309.333,377.095z"/>
						</g>
					</g>
					<g id="XMLID_3567_">
						<g id="XMLID_3572_">
							<path id="XMLID_3573_" style="fill:#455A64;" d="M312.09,382.078c-0.125,0-0.226-0.101-0.226-0.227v-7.71
								c0-0.125,0.101-0.227,0.226-0.227c0.125,0,0.227,0.101,0.227,0.227v7.71C312.317,381.977,312.215,382.078,312.09,382.078z"/>
						</g>
						<g id="XMLID_3568_">
							<path id="XMLID_3571_" style="fill:#455A64;" d="M311.427,375.9c-0.031,0-0.06-0.006-0.09-0.019
								c-0.116-0.049-0.168-0.183-0.118-0.298l0.806-1.862l0.899,1.038c0.083,0.094,0.072,0.237-0.022,0.319
								c-0.097,0.081-0.238,0.072-0.32-0.023l-0.427-0.493l-0.52,1.201C311.598,375.849,311.514,375.9,311.427,375.9z"/>
						</g>
					</g>
				</g>
			</g>
			<g>
				<g id="XMLID_3563_">
					<path id="XMLID_3564_" style="fill:#FAFAFA;" d="M277.299,386.242l-0.001,15.148c0,0.583,0.41,0.82,0.915,0.528l23.65-13.653
						c0.505-0.292,0.915-1.001,0.915-1.585l-0.001-15.157c0-0.583-0.41-0.82-0.915-0.528l-23.647,13.662
						C277.709,384.949,277.299,385.659,277.299,386.242z"/>
				</g>
				<g id="XMLID_3236_">
					<g id="XMLID_3561_">
						<polygon id="XMLID_3562_" style="fill:#455A64;" points="301.312,373.165 300.549,373.606 300.549,387.376 301.313,386.935 
													"/>
					</g>
					<g id="XMLID_3559_">
						<polygon id="XMLID_3560_" style="fill:#455A64;" points="298.204,374.959 296.888,375.733 296.888,389.503 298.204,388.729 
													"/>
					</g>
					<g id="XMLID_3556_">
						<polygon id="XMLID_3558_" style="fill:#455A64;" points="295.096,376.753 294.332,377.194 294.332,390.964 295.096,390.523 
													"/>
					</g>
					<g id="XMLID_3552_">
						<polygon id="XMLID_3555_" style="fill:#455A64;" points="292.752,378.081 291.224,378.987 291.224,392.758 292.752,391.852 
													"/>
					</g>
					<g id="XMLID_3548_">
						<polygon id="XMLID_3551_" style="fill:#455A64;" points="288.879,380.34 288.115,380.781 288.116,394.551 288.879,394.111 
													"/>
					</g>
					<g id="XMLID_3541_">
						<polygon id="XMLID_3542_" style="fill:#455A64;" points="286.641,381.604 285.007,382.575 285.007,396.345 286.641,395.374 
													"/>
					</g>
					<g id="XMLID_3521_">
						<polygon id="XMLID_3522_" style="fill:#455A64;" points="282.662,383.928 281.898,384.369 281.899,398.139 282.662,397.698 
													"/>
					</g>
					<g id="XMLID_3498_">
						<polygon id="XMLID_3499_" style="fill:#455A64;" points="280.889,384.937 280.507,385.158 280.507,398.928 280.889,398.707 
													"/>
					</g>
					<g id="XMLID_3488_">
						<polygon id="XMLID_3489_" style="fill:#455A64;" points="284.079,383.178 283.697,383.398 283.698,397.169 284.079,396.948 
													"/>
					</g>
					<g id="XMLID_3452_">
						<polygon id="XMLID_3455_" style="fill:#455A64;" points="290.341,379.51 289.959,379.731 289.959,393.501 290.341,393.281 
													"/>
					</g>
					<g id="XMLID_3243_">
						<polygon id="XMLID_3244_" style="fill:#455A64;" points="293.77,377.543 293.388,377.763 293.388,391.533 293.77,391.313 
													"/>
					</g>
					<g id="XMLID_3241_">
						<polygon id="XMLID_3242_" style="fill:#455A64;" points="296.233,376.182 295.851,376.403 295.851,390.173 296.233,389.953 
													"/>
					</g>
					<g id="XMLID_3239_">
						<polygon id="XMLID_3240_" style="fill:#455A64;" points="299.572,374.155 299.19,374.375 299.191,388.146 299.572,387.925 
													"/>
					</g>
					<g id="XMLID_3237_">
						<polygon id="XMLID_3238_" style="fill:#455A64;" points="279.553,385.722 278.79,386.163 278.79,399.933 279.554,399.492 
													"/>
					</g>
				</g>
			</g>
		</g>
	</g>
</g>
<g id="Character">
	<g id="Character_30_">
		<g id="Botom_4_">
			<g id="XMLID_10831_">
				<g id="XMLID_10832_">
					<g>
						<g id="XMLID_10840_">
							<path id="XMLID_10841_" style="fill:#FFA8A7;" d="M137.415,362.251c0.326-5.306,3.172-58.8,3.172-58.8l-25.973,18.335
								c4.538,30.578,5.533,39.794,5.727,44.896l0,0c-0.04,0.119-0.142,0.554-0.12,1.309c0.139,6.06,7.395,9.225,13.084,13.184
								c2.247,1.564,8.784,6.183,15.358,9.202c4.115,1.889,12.398,1.948,13.376-0.561c-6.924-4.859-14.932-10.163-20.471-15.746
								C138.924,371.405,137.024,368.618,137.415,362.251z"/>
						</g>
						<g>
							<path style="fill:#263238;" d="M173.807,396.172c0.35-0.005,0.948,3.656-0.924,5.243c-2.161,1.831-8.55,4.879-17.085,3.954
								c-8.535-0.926-13.194-3.364-16.653-6.027c-3.459-2.662-8.307-6.418-12.174-7.171c-3.592-0.699-7.507-2.185-8.672-3.22
								c-1.165-1.035-1.094-5.712-1.094-5.712L173.807,396.172z"/>
							<path id="XMLID_10838_" style="fill:#37474F;" d="M120.258,365.202c0,0-1.068,0.027-1.268,1.112
								c-0.238,1.292-0.45,5.042-0.973,7.164c-0.726,2.95-1.136,8.98-0.622,11.368c0.514,2.388,6.379,3.969,10.132,5.266
								c3.833,1.324,8.291,4.103,12.214,7.078c4.06,3.079,12.538,6.106,18.089,6.104c8.475-0.003,13.921-2.266,15.561-5.185
								c2.028-3.611,0.346-5.663-9.472-9.813c-1.859-0.785-8.402-4.336-10.633-5.625c-6.038-3.487-12.046-8.375-14.912-14.657
								c-0.335-0.734-0.687-1.548-1.436-1.913c-0.574-0.28-1.259-0.229-1.896-0.135c-1.618,0.239-3.195,0.719-4.66,1.41
								c-1.296,0.611-3.136,1.326-3.078,2.917c0.02,0.553,0.199,1.091,0.397,1.612c0.123,0.323,0.223,0.754-0.073,0.95
								c-0.279,0.185-0.658-0.016-0.916-0.229c-1.036-0.853-1.804-1.955-2.681-2.957c-0.47-0.536-0.981-1.05-1.569-1.471
								c-0.535-0.382-1.211-0.567-1.687-1.003C120.171,366.644,120.3,365.947,120.258,365.202z"/>
							<path style="fill:#FAFAFA;" d="M165.501,388.981c-12.252,0.978-15.979,8.234-16.415,12.698
								c3.059,0.98,6.206,1.617,8.743,1.616c8.475-0.003,14.269-2.268,15.909-5.186
								C175.652,394.701,174.257,391.995,165.501,388.981z"/>
							<g>
								<g>
									<path style="fill:#F0F0F0;" d="M147.115,389.362c-0.133,0.002-0.268-0.038-0.382-0.123c-0.26-0.195-0.303-0.553-0.099-0.8
										c1.67-2.012,6.546-4.713,11.012-4.315c0.33,0.029,0.574,0.307,0.544,0.619c-0.029,0.313-0.312,0.543-0.65,0.515
										c-4.17-0.36-8.641,2.293-9.965,3.889C147.46,389.285,147.29,389.359,147.115,389.362z"/>
								</g>
								<g>
									<path style="fill:#F0F0F0;" d="M141.777,386.511c-0.134,0.002-0.268-0.038-0.382-0.123c-0.26-0.195-0.304-0.553-0.1-0.8
										c1.672-2.014,6.549-4.722,11.013-4.315c0.33,0.029,0.574,0.307,0.543,0.62c-0.029,0.312-0.307,0.542-0.65,0.514
										c-4.169-0.365-8.641,2.293-9.965,3.889C142.122,386.435,141.951,386.509,141.777,386.511z"/>
								</g>
								<g>
									<path style="fill:#F0F0F0;" d="M136.819,383.239c-0.134,0.002-0.268-0.038-0.382-0.124c-0.26-0.195-0.304-0.553-0.1-0.8
										c1.67-2.014,6.566-4.717,11.013-4.315c0.331,0.028,0.574,0.307,0.544,0.619c-0.029,0.313-0.309,0.541-0.65,0.515
										c-4.164-0.362-8.64,2.293-9.965,3.889C137.164,383.162,136.993,383.236,136.819,383.239z"/>
								</g>
								<g>
									<path style="fill:#F0F0F0;" d="M131.96,379.965c-0.13,0.002-0.263-0.036-0.374-0.118c-0.264-0.191-0.313-0.55-0.112-0.798
										c2.296-2.854,7.57-4.787,12.032-4.387c0.331,0.029,0.574,0.307,0.543,0.62c-0.029,0.313-0.311,0.534-0.65,0.514
										c-4.017-0.357-8.936,1.418-10.974,3.947C132.311,379.887,132.136,379.962,131.96,379.965z"/>
								</g>
							</g>
						</g>
					</g>
					<g>
						<g id="XMLID_10836_">
							<path id="XMLID_10837_" style="fill:#FFA8A7;" d="M94.576,319.208l-27.094-5.858c-0.714,16.774-0.282,39.465-0.856,55.208
								c-0.108,2.964-1.644,22.987-0.792,29.14c1.281,9.244,13.673,8.642,14.697,3.202c1.025-5.44,1.921-28.69,2.124-31.1
								c0.576-10.086,6.33-27.038,10.367-44.989C93.221,323.929,94.387,320.068,94.576,319.208z"/>
						</g>
						<g>
							<path style="fill:#263238;" d="M84.911,404.948c-0.108,5.389-0.891,8.987-2.909,12.22c-2.018,3.232-6.052,4.373-10.226,3.604
								c-4.174-0.77-9.579-3.041-10.976-7.634c-1.397-4.593-1.304-7.78-0.594-12.799L84.911,404.948z"/>
							<path id="XMLID_10834_" style="fill:#37474F;" d="M66.685,366.634c-1.697,0.181-1.868,7.417-2.518,14.68
								c-0.696,7.785-3.172,11.086-3.82,17.471c-0.741,7.296-0.16,10.521,2.924,14.801c3.083,4.281,13.486,8.206,18.227,1.736
								c3.865-5.274,3.773-10.961,3.067-18.192c-0.73-7.475-1.311-12.731-1.225-18.428c0.082-5.445,1.021-10.516-0.486-11.065
								c-0.077,0.802-0.141,1.819-0.226,2.607c-0.065,0.605-0.1,3.552-1.053,3.616c-0.12-0.69-0.133-1.338-0.113-2.046
								c0.018-0.616-0.072-1.284-0.547-1.735c-0.479-0.455-1.984-0.79-2.679-0.885c-1.689-0.23-3.386-0.43-5.094-0.502
								c-0.851-0.036-1.703-0.041-2.554,0c-0.69,0.033-1.501,0.114-2.145,0.352c-0.395,0.146-0.755,0.412-0.888,0.771
								c-0.098,0.266-0.064,0.553-0.051,0.832c0.023,0.502-0.026,1.006-0.145,1.497c-0.053,0.216-0.208,0.484-0.454,0.441
								c-0.2-0.035-0.288-0.249-0.297-0.428c-0.047-0.875,0.05-1.517,0.049-2.537c0-0.471,0.057-1.116,0.043-1.589
								C66.688,367.564,66.671,367.099,66.685,366.634z"/>
							<path style="fill:#FAFAFA;" d="M60.068,403.006c-0.087,4.516,0.346,7.591,2.76,10.942c3.084,4.281,14.309,8.189,19.049,1.72
								c2.359-3.219,2.86-6.94,3.031-10.724C81.672,400.213,64.633,398.708,60.068,403.006z"/>
							<g>
								<g>
									<path style="fill:#F0F0F0;" d="M80.179,397.217c-0.071-0.004-0.142-0.018-0.212-0.043
										c-0.07-0.026-7.149-2.641-14.744-0.792c-0.336,0.077-0.683-0.093-0.777-0.39c-0.092-0.297,0.107-0.604,0.444-0.686
										c8.034-1.951,15.271,0.729,15.577,0.842c0.321,0.122,0.469,0.449,0.332,0.732C80.69,397.102,80.438,397.23,80.179,397.217z
										"/>
								</g>
								<g>
									<path style="fill:#F0F0F0;" d="M65.388,390.959c-0.239-0.012-0.461-0.145-0.553-0.355
										c-0.124-0.288,0.038-0.611,0.363-0.722c7.527-2.563,15.225,0.579,15.551,0.716c0.316,0.131,0.451,0.462,0.3,0.741
										c-0.15,0.277-0.532,0.391-0.841,0.266c-0.073-0.03-7.551-3.075-14.555-0.682C65.566,390.952,65.477,390.963,65.388,390.959
										z"/>
								</g>
								<g>
									<path style="fill:#F0F0F0;" d="M65.591,385.843c-0.235-0.012-0.453-0.141-0.547-0.346
										c-0.132-0.287,0.024-0.612,0.347-0.726c8.272-2.963,15.555,0.513,15.86,0.661c0.305,0.149,0.416,0.488,0.247,0.757
										c-0.169,0.27-0.561,0.369-0.859,0.219c-0.068-0.034-7.073-3.361-14.773-0.606
										C65.776,385.835,65.682,385.848,65.591,385.843z"/>
								</g>
								<g>
									<path style="fill:#EBEBEB;" d="M65.846,380.095c-0.231-0.012-0.447-0.137-0.544-0.339c-0.136-0.284,0.014-0.61,0.336-0.73
										c7.747-2.889,15.648,0.657,15.98,0.813c0.31,0.14,0.428,0.478,0.266,0.751c-0.16,0.274-0.54,0.384-0.852,0.236
										c-0.077-0.035-7.71-3.459-14.903-0.774C66.036,380.086,65.94,380.1,65.846,380.095z"/>
								</g>
							</g>
						</g>
					</g>
					<path id="XMLID_10833_" style="fill:#455A64;" d="M78.863,181.804c-0.642,30.518-6.097,98.306-6.097,98.306
						c-0.461,3.748-5.887,19.69-6.086,33.246c-0.313,21.274-0.767,37.386-0.767,37.386s11.884,4.705,20.613,1.449
						c0,0,11.356-45.217,14.539-59.329c3.791-16.807,13.258-48.064,13.258-48.064l-0.69,44.427c0,0-1.896,13.702-0.357,26.857
						c1.049,8.961,4.648,33.912,4.648,33.912s10.938,2.203,20.417-0.605c0,0,5.71-53.578,6.18-61.823
						c0.536-9.4,3.44-103.932,3.44-103.932L78.863,181.804z"/>
					<path style="fill:#37474F;" d="M114.323,244.798l4.247-28.322c0,0,10.37-0.41,17.476-7.06c0,0-0.885,6.641-13.853,10.645
						l-4.909,23.884l-3.804,44.449L114.323,244.798z"/>
				</g>
			</g>
		</g>
		<g id="Top_32_">
			<g>
				<path style="fill:#FFA8A7;" d="M132.835,92.823c5.508-0.289,15.769-0.639,23.142,8.439c5.182,6.381,19.315,21.731,27.323,31.864
					c5.368-5.587,18.385-19.127,20.517-23.084c2.659-4.661,4.045-9.254,4.861-11.656c1.043-3.069,1.427-5.456,1.71-7.267
					c0.673-4.314,0.192-7.531,0.156-9.109c-0.066-2.754,4.027-1.341,5.593,3.032c1.145,3.196,1.053,5.524,1.198,7.482
					c1.517-0.727,5.921-2.89,6.608-3.209c2.395-1.111,10.013-3.787,10.741,0.505c0.162,0.961-0.14,2.01,0.279,2.89
					c0.201,0.42,0.546,0.75,0.833,1.116c1.083,1.377,1.322,3.37,0.595,4.966c-0.355,0.781-0.521,1.406-0.415,2.274
					c0.099,0.813,0.335,1.656,0.104,2.469c-0.185,0.65-0.651,1.177-0.963,1.777c-0.404,0.777-0.542,1.661-0.66,2.529
					c-0.118,0.868-0.225,1.752-0.578,2.554c-0.836,1.905-3.137,2.339-4.905,2.974c-2.351,0.845-5.497,1.944-7.941,3.131
					c-4.247,2.8-15.691,23.499-27.28,36.764c-3.97,4.544-7.532,7.388-11.298,6.89l0.035-0.012c-3.048-0.069-6.817-2.836-10.45-5.973
					c-11.551-9.975-30.097-29.577-30.097-29.577C134.126,115.19,131.95,99.122,132.835,92.823z"/>
				<path style="fill:#455A64;" d="M137.951,91.278c3.66,0.57,6.177,0.464,10.836,3.107c4.101,2.328,5.576,4.291,10.326,9.605
					c4.749,5.314,16.102,19.111,16.102,19.111s-4.837,11.548-19.797,15.742l-16.554-16.067L137.951,91.278z"/>
				<path style="fill:#F28F8F;" d="M220.4,92.925c-2.357,0.833-2.962,2.432-2.785,5.856c0.105,2.03-0.379,5.802-2.533,7.377
					c0,0,1.825-0.232,2.833-1.339c1.009-1.106,1.29-1.236,1.888-0.643c0.598,0.593,1.551,0.828,1.551,0.828s-1.259,1.428-0.142,3.15
					c1.117,1.723,5.875,1.61,9.706-0.532c0,0-6.263,2.173-7.794,0.209c-1.53-1.964,1.74-4.593,4.212-5.355
					c0,0-6.061,1.652-7.058-0.322c-0.997-1.974,1.476-3.573,5.044-4.606c0,0-5.022,1.078-5.941-0.608
					C218.265,94.888,219.757,93.633,220.4,92.925z"/>
			</g>
			<g id="XMLID_10829_">
				<path id="XMLID_10830_" style="fill:#27DEBF;" d="M81.747,94.411c0,0-5.867,5.161-7.366,10.739
					c-0.737,2.742-1.416,5.031,0.905,20.247c2.216,14.53,2.208,18.888,2.711,30.204l0.577,30.354
					c8.693,10.18,50.869,15.715,71.167,2.002c0,0,0.116-52.617-1.319-69.964c-0.975-11.782-4.586-22.84-8.637-26.458
					c-5.517-0.958-10.824-1.599-10.824-1.599l-20.299-1.181L81.747,94.411z"/>
			</g>
			<g id="Head_14_">
				<g>
					<g id="XMLID_10821_">
						<g id="XMLID_10828_">
							<path style="fill:#37474F;" d="M139.172,52.22c2.704-6.202,0.056-14.425-3.174-18.288c-4.671-5.584-11.94-7.992-22.898-7.312
								c-8.332,0.517-16.528,3.978-18.088,12.53c-6.698,1.998-5.934,12.997-4.269,17.848c3.381,9.846,10.028,18.414,10.142,23.449
								L139.172,52.22z"/>
							<path style="fill:#FFA8A7;" d="M139.167,75.382c-1.316,4.753-4.07,8.237-8.463,8.924c-2.628,0.416-6.942,0.038-6.942,0.038
								l0.173,6.052c5.915,5.063,3.746,11.712-0.2,17.705c-4.902-5.451-10.514-7.394-15.412-9.552
								c-4.887-2.147-7.147-6.921-7.147-6.921l-0.626-20.438c0,0-2.691,3.055-7.126,0.167c-3.038-1.993-5.223-7.122-3.009-11.844
								c2.195-4.638,6.597-2.719,7.954-1.313c1.347,1.407,2.931,4.059,4.058,3.689c1.717-0.572,2.286-1.648,2.728-2.785
								c0.787-1.989,1.353-4.556,1.436-8.988c1.226-0.623,2.404-1.516,3.44-2.655c1.89-2.098,2.905-4.592,2.987-6.877
								c9.5-2.975,20.426-1.574,24.375,1.481c2.273,4.002,2.355,13.309,2.731,18.668C140.534,66.552,140.273,71.405,139.167,75.382z
								"/>
							<path style="fill:#F28F8F;" d="M123.762,84.34c-4.862-0.274-14.639-2.544-17.244-5.258c-2.605-2.714-3.712-8.265-3.712-8.265
								s0.391,7.013,2.404,10.107c2.013,3.094,7.101,4.444,10.189,5.211c3.088,0.768,8.454,1.283,8.454,1.283L123.762,84.34z"/>
							<g>
								<path style="fill:#455A64;" d="M123.735,108.105c-2.544-1.562-8.16-7.937-10.952-4.975
									c-2.793,2.962-4.289,3.776-6.134,3.227c-1.844-0.549-5.916-4.57-8.579-7.509c-2.663-2.939-3.502-7.162-3.502-7.162
									s2.577-3.127,3.751-5.214c1.264-2.246,0.996-2.877,2.61-2.988l0.145,4.231c0,0,1.031,2.308,5.598,5.428
									C111.24,96.262,120.447,100.912,123.735,108.105z"/>
								<path style="fill:#455A64;" d="M123.735,108.105c1.514-1.382,3.977-7.839,4.636-7.645c0.971,0.285,2.708,4.727,3.545,3.695
									c1.332-1.64,0.927-9.127-1.285-11.849c-2.128-2.618-5.155-5.613-6.809-5.901l0.117,3.993c0,0,1.66,3.233,1.639,6.438
									C125.563,99.102,124.049,105.931,123.735,108.105z"/>
							</g>
						</g>
						<g id="XMLID_10822_">
							<path id="XMLID_10827_" style="fill:#263238;" d="M120.687,57.623c0.003,1.128-0.874,2.042-1.959,2.042
								c-1.086,0.001-1.968-0.913-1.972-2.041c-0.003-1.128,0.873-2.042,1.959-2.043C119.801,55.582,120.684,56.496,120.687,57.623z
								"/>
							<path id="XMLID_10826_" style="fill:#263238;" d="M117.936,51.338l-3.98,2.687c-0.726-1.147-0.423-2.68,0.676-3.421
								C115.732,49.861,117.211,50.19,117.936,51.338z"/>
							<path id="XMLID_10825_" style="fill:#263238;" d="M137.009,53.181l-4.365-2.087c0.535-1.237,1.947-1.772,3.152-1.196
								C137.002,50.474,137.545,51.944,137.009,53.181z"/>
							<path id="XMLID_10824_" style="fill:#263238;" d="M135.539,57.501c0.004,1.127-0.873,2.042-1.959,2.042
								c-1.085,0-1.968-0.913-1.971-2.041c-0.004-1.127,0.874-2.042,1.959-2.042C134.653,55.459,135.536,56.373,135.539,57.501z"/>
							<polygon id="XMLID_10823_" style="fill:#F28F8F;" points="125.202,53.395 126.623,67.526 134.206,65.238 							"/>
						</g>
					</g>
				</g>
				<path id="XMLID_10820_" style="fill:#B16668;" d="M120.676,70.818l8.134,1.8c-0.449,2.322-2.635,3.802-4.882,3.305
					C121.682,75.426,120.226,73.14,120.676,70.818z"/>
				<path style="fill:#F28F8F;" d="M123.928,75.923c0.171,0.038,0.34,0.043,0.509,0.058c-0.052-2.053-1.73-3.688-3.782-3.688
					C120.906,74.038,122.166,75.533,123.928,75.923z"/>
			</g>
			<g>
				<g id="XMLID_3785_">
					<polygon id="XMLID_3793_" style="fill:#263238;" points="189.562,139.524 136.406,149.919 116.793,213.791 167.418,202.564 
											"/>
					<path id="XMLID_3792_" style="opacity:0.15;" d="M145.236,187.604c-0.341,1.713-2.473,7.248-8.61,8.863
						c-6.983,1.838-14.255-0.836-14.255-0.836l1.64-5.341L145.236,187.604z"/>
					<path id="XMLID_3791_" style="opacity:0.15;" d="M173.654,147.93c0,0,0.251-0.88,0.56-1.966
						c0.309-1.086-2.755-1.331-6.844-0.547l-7.829,1.5c-4.089,0.784-7.655,2.299-7.964,3.385l-0.56,1.966L173.654,147.93z"/>
					<g id="XMLID_3788_">
						<path id="XMLID_3790_" style="fill:#27DEBF;" d="M177.762,140.644c0.196-0.678-1.035-0.939-2.749-0.582l-3.104,0.645
							c0,0,1.188-4.252-5.677-3.182c-6.864,1.07-8.66,5.87-8.66,5.87s-1.484,0.32-3.315,0.715c-1.831,0.395-3.523,1.259-3.78,1.931
							l-0.465,1.215l27.381-5.352C177.393,141.904,177.566,141.322,177.762,140.644z"/>
						<path id="XMLID_3789_" style="opacity:0.3;" d="M177.762,140.644c0.196-0.678-1.035-0.939-2.749-0.582l-3.104,0.645
							c0,0,1.188-4.252-5.677-3.182c-6.864,1.07-8.66,5.87-8.66,5.87s-1.484,0.32-3.315,0.715c-1.831,0.395-3.523,1.259-3.78,1.931
							l-0.465,1.215l27.381-5.352C177.393,141.904,177.566,141.322,177.762,140.644z"/>
						<path style="fill:#27DEBF;" d="M151.889,150.511c0.256-0.902,2.774-2.096,5.961-2.925c0.031-0.113,0.063-0.226,0.086-0.316
							c0.246-0.945-0.123-1.547-2.051-1.168l-0.112-0.77l18.979-3.55l-0.837,0.775c-2.506,0.436-3.552,0.698-4.03,2.371
							c-0.04,0.138-0.066,0.25-0.103,0.383c2.977-0.34,4.997-0.026,4.745,0.862c-0.31,1.086-0.56,1.966-0.56,1.966l-22.638,4.338
							L151.889,150.511z"/>
						<path style="opacity:0.4;" d="M151.889,150.511c0.256-0.902,2.774-2.096,5.961-2.925c0.031-0.113,0.063-0.226,0.086-0.316
							c0.246-0.945-0.123-1.547-2.051-1.168l-0.112-0.77l18.979-3.55l-0.837,0.775c-2.506,0.436-3.552,0.698-4.03,2.371
							c-0.04,0.138-0.066,0.25-0.103,0.383c2.977-0.34,4.997-0.026,4.745,0.862c-0.31,1.086-0.56,1.966-0.56,1.966l-22.638,4.338
							L151.889,150.511z"/>
					</g>
				</g>
				<path style="fill:#FFA8A7;" d="M128.196,176.657c6.508,2.182,13.009,2.34,19.765,2.329c1.651-0.003,2.902,0.25,3.389,1.826
					c0.173,0.559,0.401,1.333-1.734,1.963c-0.561,0.166-1.34,0.366-1.655,0.859c-0.495,0.775-0.249,1.554-0.377,2.464
					c-0.188,1.341-1.125,2.438-2.023,3.452c-1.014,1.145-2.046,2.305-3.34,3.12c-4.117,2.59-10.467,2.909-15.158,2.151
					c-3.183-0.515-6.346-1.652-9.358-2.765c-2.863-1.058-20.294-6.195-22.365-6.918c-15.388-5.369-36.553-11.954-37.795-19.246
					c-1.243-7.293,2.666-30.02,5.467-48.545C65.274,102.387,71.34,97.053,81.174,95c10.773,12.237,3.964,33.449,3.964,33.449
					l-3.919,28.257c1.656,1.382,26.837,15.516,31.186,16.924c1.576,0.51,4.532-0.112,6.1-0.647
					c4.208-1.436,7.091-1.318,11.166-1.132"/>
				<path style="fill:#455A64;" d="M81.747,94.411c-10.443,1.433-16.624,6.781-18.735,16.897
					c-1.774,8.499-5.065,35.947-5.065,35.947c6.945,6.125,18.337,5.794,24.5,3.654l3.185-22.05
					C88.193,123.217,92.213,106.39,81.747,94.411z"/>
			</g>
			<g>
				<path style="fill:#455A64;" d="M75.044,183.585l-5.274,2.914c-0.641,0.354-1.18,1.235-1.201,1.967
					c-0.133,4.728-0.513,20.953,0.243,29.842c0.062,0.73,0.642,1.615,1.281,1.973c3.012,1.69,11.137,6.146,14.867,7.181
					c0.706,0.196,1.855-0.005,2.535-0.278l3.759-1.509c0.68-0.273,1.222-1.089,1.225-1.821c0.035-9.438,1.666-19.81,3.232-30.092
					c0.11-0.724-0.336-1.569-0.995-1.887l-17.317-8.355C76.74,183.202,75.685,183.231,75.044,183.585z"/>
				<path style="fill:#37474F;" d="M68.813,218.307c-0.756-8.889-0.376-25.111-0.243-29.84c0.021-0.732,0.572-1.063,1.227-0.737
					l16.116,8.009c0.656,0.326,1.135,1.183,1.075,1.913c-0.342,4.193-1.312,17.574-0.793,28.702c0.034,0.732-0.53,1.303-1.235,1.107
					c-3.731-1.035-11.853-5.49-14.866-7.18C69.456,219.923,68.875,219.037,68.813,218.307z"/>
				<path style="fill:#263238;" d="M85.159,227.494c0.707,0.137,1.723-0.068,2.339-0.313l3.76-1.512
					c0.682-0.261,1.161-1.089,1.216-1.817c0.735-9.694,1.667-19.81,3.239-30.09c0.055-0.347-0.022-0.702-0.192-1.029l-8.724,3.979
					c0.142,0.301,0.219,0.63,0.189,0.936c-0.344,4.204-1.313,17.583-0.788,28.712C86.231,227.022,85.771,227.554,85.159,227.494z"/>
				<path style="fill:#263238;" d="M71.702,191.818l11.833,5.725l-0.63,9.633l-11.534-5.078
					C71.371,202.097,71.453,195.897,71.702,191.818z"/>
				<path style="fill:#27DEBF;" d="M82.953,206.441l-10.923-4.809c0,0,0.073-5.471,0.288-9.517l11.217,5.427L82.953,206.441z"/>
				<path style="opacity:0.4;" d="M82.953,206.441l-10.923-4.809c0,0,0.073-5.471,0.288-9.517l11.217,5.427L82.953,206.441z"/>
				<polygon style="fill:#263238;" points="88.503,191.206 85.562,192.615 74.961,187.425 77.817,185.991 				"/>
				<polygon style="fill:#27DEBF;" points="88.062,191.418 85.562,192.615 75.405,187.642 77.831,186.424 				"/>
				<polygon style="opacity:0.4;" points="88.062,191.418 85.562,192.615 75.405,187.642 77.831,186.424 				"/>
				<polygon style="opacity:0.4;" points="86.552,190.681 84.029,191.865 83.707,191.707 86.217,190.517 				"/>
				<polygon style="opacity:0.4;" points="84.287,189.57 81.795,190.767 81.43,190.592 83.951,189.407 				"/>
				<polygon style="opacity:0.4;" points="82.044,188.48 79.529,189.664 79.207,189.507 81.708,188.316 				"/>
				<polygon style="opacity:0.4;" points="79.991,187.479 77.478,188.657 77.156,188.5 79.656,187.315 				"/>
				<g>
					<g>
						<path style="fill:#263238;" d="M83.417,210.465l-0.083,1.188c-0.026,0.365-0.321,0.549-0.66,0.41l-2.14-0.878
							c-0.339-0.139-0.596-0.548-0.575-0.914l0.071-1.217c0.021-0.366,0.313-0.548,0.651-0.407l2.17,0.902
							C83.189,209.69,83.443,210.1,83.417,210.465z"/>
						<path style="fill:#263238;" d="M83.437,214.337l-0.065,1.189c-0.02,0.366-0.312,0.554-0.653,0.42l-2.152-0.844
							c-0.341-0.134-0.604-0.539-0.589-0.905l0.052-1.217c0.016-0.366,0.304-0.553,0.645-0.417l2.182,0.868
							C83.197,213.565,83.457,213.971,83.437,214.337z"/>
						<path style="fill:#263238;" d="M83.457,218.208l-0.047,1.19c-0.014,0.366-0.304,0.559-0.647,0.43l-2.164-0.811
							c-0.343-0.129-0.613-0.529-0.603-0.896l0.033-1.218c0.01-0.366,0.296-0.557,0.638-0.427l2.195,0.835
							C83.205,217.44,83.471,217.842,83.457,218.208z"/>
						<path style="fill:#263238;" d="M83.477,222.08l-0.028,1.191c-0.009,0.366-0.295,0.563-0.64,0.44l-2.178-0.779
							c-0.345-0.123-0.621-0.52-0.617-0.886l0.015-1.219c0.004-0.366,0.287-0.562,0.631-0.437l2.209,0.801
							C83.213,221.316,83.485,221.714,83.477,222.08z"/>
					</g>
					<g>
						<path style="fill:#263238;" d="M78.626,208.281l-0.064,1.239c-0.019,0.366-0.308,0.549-0.647,0.409l-2.125-0.88
							c-0.339-0.14-0.601-0.55-0.586-0.916l0.051-1.268c0.015-0.366,0.3-0.548,0.638-0.406l2.155,0.904
							C78.386,207.504,78.645,207.915,78.626,208.281z"/>
						<path style="fill:#263238;" d="M78.609,212.125l-0.058,1.239c-0.017,0.366-0.306,0.55-0.645,0.411l-2.13-0.87
							c-0.339-0.138-0.603-0.547-0.59-0.913l0.045-1.268c0.013-0.366,0.298-0.549,0.636-0.409l2.159,0.894
							C78.366,211.349,78.627,211.76,78.609,212.125z"/>
						<path style="fill:#263238;" d="M78.593,215.97l-0.052,1.24c-0.015,0.366-0.303,0.551-0.643,0.415l-2.133-0.86
							c-0.34-0.137-0.606-0.545-0.595-0.911l0.039-1.269c0.011-0.366,0.295-0.55,0.634-0.412l2.164,0.884
							C78.346,215.195,78.608,215.604,78.593,215.97z"/>
						<path style="fill:#263238;" d="M78.577,219.814l-0.046,1.24c-0.014,0.366-0.301,0.553-0.641,0.418l-2.138-0.85
							c-0.34-0.135-0.608-0.542-0.599-0.908l0.033-1.269c0.009-0.366,0.293-0.552,0.632-0.415l2.168,0.874
							C78.326,219.041,78.59,219.448,78.577,219.814z"/>
					</g>
					<g>
						<g>
							<path style="fill:#263238;" d="M73.834,206.096l-0.043,1.29c-0.012,0.366-0.296,0.548-0.634,0.407l-2.111-0.882
								c-0.338-0.141-0.605-0.552-0.597-0.918l0.03-1.32c0.008-0.366,0.289-0.547,0.626-0.405l2.141,0.906
								C73.583,205.318,73.846,205.73,73.834,206.096z"/>
						</g>
						<g>
							<path style="fill:#263238;" d="M73.848,209.835l-0.043,1.29c-0.012,0.366-0.296,0.548-0.634,0.407l-2.112-0.882
								c-0.338-0.141-0.605-0.552-0.597-0.918l0.03-1.32c0.008-0.366,0.288-0.547,0.626-0.404l2.141,0.906
								C73.596,209.057,73.86,209.469,73.848,209.835z"/>
						</g>
						<g>
							<path style="fill:#263238;" d="M73.861,213.575l-0.043,1.29c-0.012,0.366-0.296,0.548-0.634,0.407l-2.111-0.882
								c-0.338-0.141-0.605-0.552-0.597-0.919l0.03-1.32c0.008-0.366,0.289-0.547,0.626-0.404l2.141,0.906
								C73.61,212.796,73.873,213.209,73.861,213.575z"/>
						</g>
						<path style="fill:#263238;" d="M73.875,217.314l-0.043,1.29c-0.012,0.366-0.296,0.548-0.634,0.407l-2.111-0.882
							c-0.338-0.141-0.605-0.552-0.597-0.919l0.03-1.32c0.008-0.366,0.288-0.547,0.626-0.405l2.141,0.906
							C73.624,216.536,73.887,216.948,73.875,217.314z"/>
					</g>
				</g>
			</g>
		</g>
	</g>
</g>
<g id="Speech_Bubble">
	<g id="Speech_Bubble_2_">
		<g id="Speech_Bubble_3_">
			<g>
				<path style="fill:#27DEBF;" d="M288.026,89.085l-12.367,7.161l4.913,11.042c0.107,0.241,0.274,0.415,0.47,0.526
					c0.587,0.333,4.056,2.342,4.248,2.453c0.587,0.34,1.434,0.1,1.659-0.661l5.334-18.064L288.026,89.085z"/>
				<path style="opacity:0.15;" d="M288.026,89.085l-12.367,7.161l4.913,11.042c0.107,0.241,0.274,0.415,0.47,0.526
					c0.587,0.333,4.056,2.342,4.248,2.453c0.587,0.34,1.434,0.1,1.659-0.661l5.334-18.064L288.026,89.085z"/>
				<path style="fill:#27DEBF;" d="M279.915,98.704l4.913,11.042c0.428,0.962,1.822,0.87,2.121-0.14l5.334-18.064L279.915,98.704z"
					/>
			</g>
			<g>
				<path id="XMLID_3797_" style="fill:#27DEBF;" d="M303.596,19.521l-46.639,26.925c-0.591,0.341-1.07,1.172-1.07,1.854v57.875
					c0,0.683,0.482,1.508,1.077,1.844l3.835,2.15c0.595,0.335,1.556,0.331,2.147-0.01l46.639-26.925
					c0.591-0.341,1.07-1.172,1.07-1.854V23.505c0-0.683-0.482-1.508-1.077-1.844l-3.835-2.15
					C305.149,19.175,304.187,19.18,303.596,19.521z"/>
				<path id="XMLID_3796_" style="opacity:0.5;fill:#FFFFFF;" d="M310.641,23.31c-0.084-0.539-0.524-0.732-1.058-0.425
					l-46.635,26.927c-0.297,0.173-0.564,0.465-0.757,0.801l-5.969-3.405c0.193-0.321,0.45-0.598,0.737-0.761l46.64-26.927
					c0.588-0.341,1.548-0.346,2.146-0.01l3.833,2.149C310.117,21.965,310.566,22.673,310.641,23.31z"/>
				<path id="XMLID_3795_" style="fill:#27DEBF;" d="M261.875,109.541V51.666c0-0.683,0.479-1.513,1.07-1.854l46.639-26.925
					c0.591-0.341,1.07-0.065,1.07,0.618V81.38c0,0.683-0.479,1.513-1.07,1.854l-46.639,26.925
					C262.354,110.501,261.875,110.224,261.875,109.541z"/>
				<path id="XMLID_3786_" style="opacity:0.15;" d="M262.945,110.159c-0.57,0.331-1.611,0.342-2.149,0.012l-3.833-2.154
					c-0.593-0.331-1.078-1.157-1.078-1.839V48.301c0-0.356,0.134-0.747,0.341-1.093l5.964,3.405
					c-0.198,0.331-0.316,0.712-0.316,1.053v57.873C261.875,110.164,262.315,110.524,262.945,110.159z"/>
			</g>
		</g>
		<g id="Check_List_1_">
			<g>
				<g>
					<g>
						<path style="fill:#FAFAFA;" d="M266.869,67.785c-0.093,0-0.185-0.024-0.269-0.072c-0.166-0.096-0.269-0.273-0.269-0.465V57.17
							c0-0.192,0.102-0.369,0.269-0.465l8.727-5.038c0.166-0.096,0.371-0.096,0.537,0c0.166,0.096,0.269,0.273,0.269,0.465
							l0.001,10.076c0,0.192-0.102,0.369-0.269,0.465l-8.728,5.039C267.054,67.76,266.961,67.785,266.869,67.785z M267.406,57.48
							v8.837l7.654-4.418l-0.001-8.836L267.406,57.48z"/>
					</g>
					<path id="Check_2_" style="fill:#455A64;" d="M276.619,49.605c-0.539-0.225-1.161,0.028-1.386,0.565l-4.001,9.519l-0.953-0.927
						c-0.416-0.406-1.088-0.397-1.496,0.022c-0.406,0.418-0.396,1.09,0.022,1.496l2.065,2.008c0.198,0.193,0.46,0.299,0.737,0.299
						c0.07,0,0.14-0.007,0.211-0.021c0.344-0.07,0.63-0.305,0.765-0.627l4.602-10.949C277.41,50.453,277.157,49.831,276.619,49.605z
						"/>
				</g>
				<path style="fill:#455A64;" d="M283.013,51.369l22.259-12.853c0.771-0.445,1.395-0.125,1.395,0.714
					c0,0.839-0.625,1.88-1.395,2.325l-22.259,12.852c-0.771,0.445-1.395,0.126-1.395-0.713
					C281.617,52.855,282.242,51.815,283.013,51.369z"/>
			</g>
			<g>
				<g>
					<g>
						<path style="fill:#FAFAFA;" d="M266.868,82.9c-0.093,0-0.186-0.024-0.269-0.072c-0.166-0.096-0.269-0.273-0.269-0.465V72.286
							c0-0.192,0.102-0.369,0.269-0.465l8.728-5.039c0.166-0.096,0.371-0.096,0.537,0c0.166,0.096,0.269,0.273,0.269,0.465v10.077
							c0,0.192-0.102,0.369-0.269,0.465l-8.728,5.038C267.053,82.875,266.96,82.9,266.868,82.9z M267.405,72.596v8.836l7.654-4.417
							v-8.837L267.405,72.596z"/>
					</g>
					<path id="Check_1_" style="fill:#455A64;" d="M276.619,64.721c-0.539-0.226-1.161,0.028-1.386,0.565l-4.001,9.519l-0.953-0.927
						c-0.416-0.406-1.088-0.397-1.496,0.022c-0.406,0.418-0.396,1.089,0.022,1.496l2.065,2.007c0.198,0.193,0.46,0.299,0.737,0.299
						c0.07,0,0.14-0.007,0.211-0.021c0.344-0.07,0.63-0.305,0.765-0.627l4.602-10.949C277.41,65.568,277.157,64.947,276.619,64.721z
						"/>
				</g>
				<path style="fill:#455A64;" d="M283.013,66.438l22.259-12.853c0.771-0.445,1.395-0.125,1.395,0.714
					c0,0.839-0.625,1.88-1.395,2.325l-22.259,12.852c-0.771,0.445-1.395,0.126-1.395-0.713
					C281.617,67.924,282.242,66.883,283.013,66.438z"/>
			</g>
			<g>
				<g>
					<g>
						<path style="fill:#FAFAFA;" d="M266.868,98.016c-0.093,0-0.186-0.025-0.269-0.073c-0.166-0.096-0.269-0.273-0.269-0.465
							V87.401c0-0.192,0.102-0.369,0.269-0.465l8.728-5.038c0.166-0.096,0.371-0.096,0.537,0c0.166,0.096,0.269,0.273,0.269,0.465
							V92.44c0,0.192-0.102,0.369-0.269,0.465l-8.728,5.039C267.053,97.991,266.96,98.016,266.868,98.016z M267.405,87.711v8.837
							l7.654-4.418v-8.836L267.405,87.711z"/>
					</g>
					<path id="Check_3_" style="fill:#455A64;" d="M276.619,79.836c-0.539-0.226-1.161,0.028-1.386,0.565l-4.001,9.519l-0.953-0.927
						c-0.416-0.406-1.088-0.397-1.496,0.022c-0.406,0.418-0.396,1.09,0.022,1.496l2.065,2.008c0.198,0.193,0.46,0.299,0.737,0.299
						c0.07,0,0.14-0.007,0.211-0.021c0.344-0.07,0.63-0.305,0.765-0.627l4.602-10.949C277.41,80.684,277.157,80.062,276.619,79.836z
						"/>
				</g>
				<path style="fill:#455A64;" d="M283.013,81.507l22.259-12.853c0.771-0.445,1.395-0.125,1.395,0.714
					c0,0.839-0.625,1.88-1.395,2.325l-22.259,12.852c-0.771,0.445-1.395,0.126-1.395-0.713
					C281.617,82.993,282.242,81.952,283.013,81.507z"/>
			</g>
		</g>
	</g>
</g>
</svg>
